<svg width="80" height="80" viewBox="0 0 80 80" fill="none" xmlns="http://www.w3.org/2000/svg">
<path d="M48.4614 44.4925C53.9747 38.9792 53.9747 30.0403 48.4614 24.527C42.9481 19.0137 34.0092 19.0137 28.4959 24.527C22.9826 30.0403 22.9826 38.9792 28.4959 44.4925C34.0092 50.0058 42.9481 50.0058 48.4614 44.4925Z" fill="#CBF7FF"/>
<path d="M10.2467 7.83797H62.0132V0H2.40869V73.7245H10.2467V7.83797Z" fill="#CBF7FF"/>
<path d="M44.5737 29.1354L40.6514 30.7043C40.2245 30.8751 39.8947 31.225 39.7494 31.661L38.8275 34.4268L35.823 32.424C35.105 31.9456 34.1348 32.1395 33.6562 32.8573L30.5184 37.5639C30.0398 38.2818 30.2337 39.252 30.9517 39.7306C31.6665 40.2071 32.6376 40.0184 33.1184 39.2973L35.3895 35.8907L38.7961 38.1617C39.6492 38.7307 40.8184 38.3359 41.1451 37.3557L42.4848 33.3367L45.7342 32.037C46.5355 31.7164 46.9251 30.8071 46.6047 30.0059C46.2842 29.2045 45.375 28.8154 44.5737 29.1354Z" fill="#1D2948"/>
<path d="M75.7319 60.6149L68.2886 53.4595V7.83789C68.2886 6.97492 67.5889 6.27539 66.7261 6.27539H10.2466C9.38361 6.27539 8.68408 6.97492 8.68408 7.83789V78.4374C8.68408 79.3002 9.38361 79.9999 10.2466 79.9999H66.7263C67.5891 79.9999 68.2888 79.3002 68.2888 78.4374V70.557C70.6352 71.8585 73.7038 71.5537 75.7533 69.502C78.2623 66.9952 78.1508 62.9813 75.7319 60.6149ZM11.8091 76.8749V9.40039H65.1638V50.4554L58.3397 43.8951C59.7185 40.9776 60.4444 37.7576 60.4444 34.509C60.4444 22.4013 50.5941 12.551 38.4864 12.551C26.3788 12.551 16.5286 22.4013 16.5286 34.509C16.5286 46.6165 26.3789 56.4668 38.4864 56.4668C42.5705 56.4668 46.5066 55.3505 49.9505 53.2346L65.1638 67.8451V76.8749H11.8091ZM38.4863 53.3418C28.1019 53.3418 19.6535 44.8935 19.6535 34.509C19.6535 24.1245 28.1019 15.676 38.4863 15.676C48.8708 15.676 57.3192 24.1245 57.3192 34.509C57.3192 44.946 48.8505 53.3418 38.4863 53.3418ZM73.5436 67.2923C72.3159 68.5209 70.327 68.5212 69.0991 67.2923C69.0677 67.2609 69.8567 68.0196 52.5344 51.3834C54.1524 50.034 55.5764 48.4505 56.7486 46.7004L73.5544 62.8565C74.7722 64.0837 74.7719 66.0649 73.5436 67.2923Z" fill="#1D2948"/>
<path d="M36.9174 61.1865H18.0908C17.2279 61.1865 16.5283 61.8862 16.5283 62.749C16.5283 63.6118 17.2279 64.3115 18.0908 64.3115H36.9174C37.7804 64.3115 38.4799 63.6118 38.4799 62.749C38.4799 61.8862 37.7804 61.1865 36.9174 61.1865Z" fill="#1D2948"/>
<path d="M36.9174 69.0303H18.0908C17.2279 69.0303 16.5283 69.73 16.5283 70.5928C16.5283 71.4556 17.2279 72.1553 18.0908 72.1553H36.9174C37.7804 72.1553 38.4799 71.4556 38.4799 70.5928C38.4799 69.73 37.7804 69.0303 36.9174 69.0303Z" fill="#1D2948"/>
<path d="M52.6061 61.1865H44.7617C43.8989 61.1865 43.1992 61.8862 43.1992 62.749C43.1992 63.6118 43.8989 64.3115 44.7617 64.3115H52.6061C53.4689 64.3115 54.1686 63.6118 54.1686 62.749C54.1686 61.8862 53.4691 61.1865 52.6061 61.1865Z" fill="#1D2948"/>
<path d="M52.6061 69.0303H44.7617C43.8989 69.0303 43.1992 69.73 43.1992 70.5928C43.1992 71.4556 43.8989 72.1553 44.7617 72.1553H52.6061C53.4689 72.1553 54.1686 71.4556 54.1686 70.5928C54.1686 69.73 53.4691 69.0303 52.6061 69.0303Z" fill="#1D2948"/>
</svg>
