<svg width="80" height="80" viewBox="0 0 80 80" fill="none" xmlns="http://www.w3.org/2000/svg">
<g clip-path="url(#clip0_45_5795)">
<path d="M31.3716 67.4502C44.3662 67.4502 54.9004 56.916 54.9004 43.9214C54.9004 30.9268 44.3662 20.3926 31.3716 20.3926C18.377 20.3926 7.84277 30.9268 7.84277 43.9214C7.84277 56.916 18.377 67.4502 31.3716 67.4502Z" fill="#C9FFDD"/>
<path d="M75.1516 14.9778L78.7683 5.93665L69.7268 9.55303C65.4073 6.3793 60.3013 4.70703 54.9003 4.70703C47.4933 4.70703 40.5012 7.95699 35.717 13.6235L35.103 14.3506C54.2365 16.7408 66.0991 36.5337 59.2224 54.5475C59.6469 54.3833 67.9651 53.4622 74.3268 45.6945C81.3934 37.0657 82.0728 24.3972 75.1516 14.9778Z" fill="#C9FFDD"/>
<path d="M39.6742 31.182C39.0615 30.5695 38.0686 30.5696 37.4558 31.182L26.9353 41.7027L23.2041 37.9715C22.5914 37.3589 21.5984 37.3591 20.9856 37.9715L16.549 42.4081C15.9369 43.0204 15.9366 44.014 16.549 44.6265L25.8261 53.9035C26.4388 54.516 27.4316 54.516 28.0446 53.9035C29.445 52.5032 42.1251 39.823 44.1111 37.837C44.7233 37.2247 44.7233 36.2311 44.1111 35.6186L39.6742 31.182ZM26.9353 50.576L19.8766 43.5174L22.0949 41.2991L25.8261 45.0303C26.4388 45.6428 27.4317 45.6428 28.0446 45.0303L38.5651 34.5096L40.7834 36.7279L26.9353 50.576Z" fill="#1D2948"/>
<path d="M31.3717 12.5498C14.0734 12.5498 0 26.6232 0 43.9216C0 50.7501 2.13893 57.2023 6.19514 62.6406L3.24933 70.005C2.73891 71.2813 4.00884 72.5553 5.28834 72.044L12.6527 69.0983C18.091 73.1545 24.5432 75.2935 31.3717 75.2935C48.6701 75.2935 62.7435 61.2201 62.7435 43.9217C62.7435 26.6233 48.6701 12.5498 31.3717 12.5498ZM31.3717 72.1561C24.9501 72.1561 18.8988 70.055 13.8724 66.0797C13.5909 65.857 13.247 65.7414 12.8993 65.7414C12.3691 65.7414 12.4913 65.8242 7.52138 67.7718L9.4396 62.9763C9.64822 62.4547 9.56195 61.8613 9.21357 61.4207C5.23845 56.3943 3.13717 50.3432 3.13717 43.9216C3.13717 28.353 15.8032 15.687 31.3717 15.687C46.9403 15.687 59.6063 28.353 59.6063 43.9216C59.6063 59.4901 46.9403 72.1561 31.3717 72.1561Z" fill="#1D2948"/>
</g>
<defs>
<clipPath id="clip0_45_5795">
<rect width="80" height="80" fill="white"/>
</clipPath>
</defs>
</svg>
