<svg width="11" height="11" viewBox="0 0 11 11" fill="none" xmlns="http://www.w3.org/2000/svg">
<path d="M6.33775 5.4637L10.9272 0.816832C10.9272 0.744224 11 0.671617 11 0.526403C11 0.381188 10.9272 0.308581 10.8543 0.163366C10.5629 -0.0544554 10.1987 -0.0544554 9.90729 0.163366L5.53642 4.59241L1.16556 0.0907591C0.874172 0.0181518 0.437086 -0.0544554 0.145695 0.163366C0.0728477 0.308581 0 0.381188 0 0.526403C0 0.671617 0.0728477 0.744224 0.145695 0.816832L4.7351 5.4637L0.0728477 10.1832C0 10.2558 0 10.401 0 10.4736C0 10.6188 0.0728477 10.6914 0.145695 10.8366C0.364238 11.0545 0.801325 11.0545 1.09272 10.8366L5.46358 6.33498L9.90729 10.8366C10.1258 11.0545 10.5629 11.0545 10.8543 10.8366C11 10.764 11 10.6188 11 10.4736C11 10.3284 11 10.2558 10.8543 10.1832L6.33775 5.4637Z" fill="#1D2948"/>
</svg>
