<svg width="14" height="14" viewBox="0 0 14 14" fill="none" xmlns="http://www.w3.org/2000/svg">
<path d="M8.06623 6.9538L13.9073 1.0396C13.9073 0.947195 14 0.854786 14 0.669967C14 0.485149 13.9073 0.392739 13.8146 0.207921C13.4437 -0.0693069 12.9801 -0.0693069 12.6093 0.207921L7.04636 5.84488L1.48344 0.115512C1.11258 0.0231023 0.556291 -0.0693069 0.18543 0.207921C0.0927152 0.392739 0 0.485149 0 0.669967C0 0.854786 0.0927152 0.947195 0.18543 1.0396L6.02649 6.9538L0.0927152 12.9604C0 13.0528 0 13.2376 0 13.33C0 13.5149 0.0927152 13.6073 0.18543 13.7921C0.463576 14.0693 1.01987 14.0693 1.39073 13.7921L6.95364 8.06271L12.6093 13.7921C12.8874 14.0693 13.4437 14.0693 13.8146 13.7921C14 13.6997 14 13.5149 14 13.33C14 13.1452 14 13.0528 13.8146 12.9604L8.06623 6.9538Z" fill="#B6B9C9"/>
</svg>
