<svg width="18" height="18" viewBox="0 0 18 18" fill="inherit" xmlns="http://www.w3.org/2000/svg">
<path d="M15.7181 9.17737C15.9683 9.41663 16.125 9.75244 16.125 10.125C16.125 10.7959 15.6186 11.3501 14.9681 11.4274C15.2183 11.6664 15.375 12.0024 15.375 12.375C15.375 13.0459 14.8686 13.6001 14.2181 13.6774C14.4683 13.9164 14.625 14.2524 14.625 14.625C14.625 15.3486 14.0361 15.9375 13.3125 15.9375H12.1875H9.28088C8.20594 15.9375 7.14431 15.6557 6.21112 15.1222L6 15.0017V7.16138C6.64275 6.47531 7.152 5.66981 7.49156 4.78725L8.4525 2.28844C8.59088 1.929 8.94263 1.6875 9.32756 1.6875H9.4065C9.94781 1.6875 10.4424 1.93725 10.764 2.37244C11.0854 2.80781 11.1786 3.354 11.0194 3.87112L10.2658 6.31969C10.248 6.37725 10.2585 6.43781 10.2941 6.48619C10.3301 6.53475 10.3853 6.5625 10.4452 6.5625H15.5625C16.2861 6.5625 16.875 7.15125 16.875 7.875C16.875 8.54588 16.3686 9.10012 15.7181 9.17737ZM5.25 7.125V15.375C5.25 15.8919 4.82944 16.3125 4.3125 16.3125H2.0625C1.54556 16.3125 1.125 15.8919 1.125 15.375V7.125C1.125 6.60806 1.54556 6.1875 2.0625 6.1875H4.3125C4.82944 6.1875 5.25 6.60806 5.25 7.125ZM3.9375 14.25C3.9375 13.8364 3.60113 13.5 3.1875 13.5C2.77387 13.5 2.4375 13.8364 2.4375 14.25C2.4375 14.6636 2.77387 15 3.1875 15C3.60113 15 3.9375 14.6636 3.9375 14.25Z" fill="inherit"/>
</svg>
