<svg width="32" height="32" viewBox="0 0 32 32" fill="none" xmlns="http://www.w3.org/2000/svg">
<path d="M28.4889 24.9651L26.3191 25.7412L26.3824 23.4255L24.978 21.5894L27.187 20.9344L28.4889 19.0234L29.7908 20.9344L31.9998 21.5894L30.5955 23.4255L30.6588 25.7412L28.4889 24.9651Z" fill="#3C50E0"/>
<path d="M19.2264 23.1472L7.81689 18.2127V9.35253L19.2264 4.41797V23.1472Z" fill="#3C50E0"/>
<path d="M7.81681 8.72754H3.61256C3.26744 8.72754 2.98756 9.00741 2.98756 9.35254V10.3878H0.625C0.279875 10.3878 0 10.6677 0 11.0128V16.5524C0 16.8975 0.279875 17.1774 0.625 17.1774H2.98756V18.2126C2.98756 18.5577 3.26744 18.8376 3.61256 18.8376H3.86881V29.2021C3.86881 29.5472 4.14869 29.8271 4.49381 29.8271H7.81687C8.162 29.8271 8.44188 29.5472 8.44188 29.2021V9.35254C8.44181 9.00735 8.162 8.72754 7.81681 8.72754V8.72754ZM4.23756 9.97754H7.19187V17.5877H4.23756V9.97754ZM1.25 15.9274V11.6378H2.98756V15.9274H1.25ZM7.19181 28.5772H5.11875V18.8377H7.19181V28.5772Z" fill="#1D2948"/>
<path d="M22.8717 10.8988V2.79883C22.8717 2.4537 22.5918 2.17383 22.2467 2.17383H19.2261C18.8809 2.17383 18.6011 2.4537 18.6011 2.79883V24.7659C18.6011 25.111 18.8809 25.3909 19.2261 25.3909H22.2467C22.5918 25.3909 22.8717 25.111 22.8717 24.7659V16.666C24.391 16.5871 25.6029 15.3261 25.6029 13.7875V13.7773C25.6029 12.2386 24.391 10.9776 22.8717 10.8988V10.8988ZM21.6217 24.1409H19.8511V3.42383H21.6217V24.1409ZM24.3529 13.7875C24.3529 14.6367 23.7012 15.3365 22.8717 15.413V12.1518C23.7012 12.2283 24.3529 12.9281 24.3529 13.7773V13.7875Z" fill="#1D2948"/>
</svg>
