<svg width="17" height="17" viewBox="0 0 17 17" fill="inherit" xmlns="http://www.w3.org/2000/svg">
<path d="M3.53949 16.2324C3.31283 16.2324 3.11283 16.1506 2.93949 15.9869C2.77949 15.8232 2.69949 15.6118 2.69949 15.3526C2.69949 15.1207 2.76616 14.9298 2.89949 14.7797L13.7395 0.600708C13.8462 0.491587 13.9528 0.402926 14.0595 0.334725C14.1795 0.266523 14.3062 0.232422 14.4395 0.232422C14.6795 0.232422 14.8795 0.321084 15.0395 0.498407C15.1995 0.66209 15.2795 0.873514 15.2795 1.13268C15.2795 1.32364 15.2262 1.49414 15.1195 1.64419L4.19949 15.946C4.01283 16.1369 3.79283 16.2324 3.53949 16.2324ZM4.91949 8.2938C4.19949 8.2938 3.53949 8.10966 2.93949 7.74137C2.35283 7.37309 1.87949 6.88886 1.51949 6.28869C1.15949 5.67488 0.979492 4.99969 0.979492 4.26311C0.979492 3.54018 1.15949 2.87863 1.51949 2.27846C1.87949 1.66465 2.35283 1.1736 2.93949 0.805313C3.53949 0.423386 4.19949 0.232422 4.91949 0.232422C5.63949 0.232422 6.29283 0.423386 6.87949 0.805313C7.47949 1.1736 7.95949 1.66465 8.31949 2.27846C8.67949 2.87863 8.85949 3.547 8.85949 4.28357C8.85949 5.00651 8.67949 5.67488 8.31949 6.28869C7.95949 6.88886 7.47949 7.37309 6.87949 7.74137C6.29283 8.10966 5.63949 8.2938 4.91949 8.2938ZM4.93949 6.57513C5.33949 6.57513 5.70616 6.47283 6.03949 6.26823C6.38616 6.04998 6.65949 5.77036 6.85949 5.42935C7.07283 5.07471 7.17949 4.69278 7.17949 4.28357C7.17949 3.84708 7.07283 3.45834 6.85949 3.11733C6.65949 2.76269 6.38616 2.48306 6.03949 2.27846C5.69283 2.06021 5.31949 1.95109 4.91949 1.95109C4.51949 1.95109 4.14616 2.06021 3.79949 2.27846C3.45283 2.48306 3.17283 2.76269 2.95949 3.11733C2.75949 3.45834 2.65949 3.84708 2.65949 4.28357C2.65949 4.69278 2.75949 5.07471 2.95949 5.42935C3.17283 5.77036 3.44616 6.04998 3.77949 6.26823C4.12616 6.47283 4.51283 6.57513 4.93949 6.57513ZM13.0395 16.2324C12.3195 16.2324 11.6595 16.0551 11.0595 15.7005C10.4728 15.3322 9.99949 14.8479 9.63949 14.2478C9.29283 13.634 9.11949 12.9588 9.11949 12.2222C9.11949 11.4856 9.29283 10.8172 9.63949 10.2171C9.99949 9.60327 10.4728 9.11904 11.0595 8.76439C11.6462 8.3961 12.3062 8.21196 13.0395 8.21196C13.7595 8.21196 14.4128 8.38929 14.9995 8.74393C15.5995 9.09858 16.0795 9.58281 16.4395 10.1966C16.7995 10.7968 16.9795 11.472 16.9795 12.2222C16.9795 12.9588 16.7995 13.634 16.4395 14.2478C16.0795 14.8479 15.5995 15.3322 14.9995 15.7005C14.4128 16.0551 13.7595 16.2324 13.0395 16.2324ZM13.0395 14.5138C13.4528 14.5138 13.8262 14.4115 14.1595 14.2068C14.5062 13.9886 14.7795 13.709 14.9795 13.368C15.1928 13.0133 15.2995 12.6314 15.2995 12.2222C15.2995 11.7993 15.1928 11.4174 14.9795 11.0764C14.7795 10.7218 14.5062 10.4421 14.1595 10.2375C13.8128 10.0329 13.4395 9.93063 13.0395 9.93063C12.6395 9.93063 12.2662 10.0329 11.9195 10.2375C11.5728 10.4421 11.2995 10.7218 11.0995 11.0764C10.8995 11.4174 10.7995 11.7993 10.7995 12.2222C10.7995 12.645 10.8995 13.0338 11.0995 13.3884C11.2995 13.7294 11.5728 14.0022 11.9195 14.2068C12.2662 14.4115 12.6395 14.5138 13.0395 14.5138Z" fill="inherit"/>
</svg>
