<svg width="23" height="22" viewBox="0 0 23 22" fill="inherit" xmlns="http://www.w3.org/2000/svg">
<path d="M19.4678 10.2405C19.8902 11.8166 19.8358 13.4827 19.3113 15.0279C18.7869 16.573 17.816 17.928 16.5214 18.9214C15.2268 19.9148 13.6668 20.5019 12.0385 20.6086C10.4102 20.7153 8.78685 20.3367 7.37373 19.5208C5.96061 18.7049 4.82119 17.4882 4.09958 16.0246C3.37796 14.5611 3.10657 12.9164 3.31971 11.2986C3.53286 9.68085 4.22097 8.1626 5.29702 6.9359C6.37308 5.7092 7.78874 4.82916 9.36497 4.40706L9.86685 4.273L8.15497 3.283C7.91793 3.14625 7.74493 2.92093 7.67402 2.65662C7.6031 2.39231 7.64009 2.11066 7.77685 1.87362C7.9136 1.63658 8.13891 1.46358 8.40322 1.39267C8.66753 1.32176 8.94918 1.35874 9.18622 1.4955L13.3525 3.90175C13.5101 3.99303 13.625 4.14312 13.6721 4.31906C13.7191 4.495 13.6944 4.68243 13.6034 4.84019L11.1972 9.00987C11.1327 9.13311 11.044 9.24204 10.9363 9.3301C10.8286 9.41815 10.7043 9.48353 10.5707 9.52228C10.4371 9.56103 10.2971 9.57236 10.159 9.55559C10.021 9.53882 9.88772 9.49429 9.7673 9.42469C9.64689 9.35508 9.5418 9.26184 9.45835 9.15057C9.37491 9.0393 9.31483 8.9123 9.28174 8.77721C9.24866 8.64212 9.24323 8.50173 9.26581 8.36449C9.28838 8.22725 9.33848 8.096 9.4131 7.97862L10.3997 6.26331L10.0593 6.35612C6.76622 7.23612 4.66591 10.5808 5.50122 13.8877C5.72629 14.7784 6.14688 15.6077 6.73244 16.3156C7.318 17.0235 8.05383 17.5921 8.88653 17.9802C9.71923 18.3682 10.6279 18.566 11.5465 18.5591C12.4652 18.5522 13.3708 18.3408 14.1976 17.9403C15.0244 17.5398 15.7516 16.9603 16.3265 16.2437C16.9013 15.5271 17.3094 14.6915 17.5211 13.7976C17.7328 12.9036 17.7428 11.9737 17.5503 11.0754C17.3579 10.1772 16.9678 9.33299 16.4084 8.60425C16.2605 8.41594 16.1794 8.18372 16.1781 7.94425C16.1781 7.76657 16.2256 7.59211 16.3156 7.43894C16.3989 7.29353 16.5165 7.1707 16.6582 7.08116C16.7999 6.99161 16.9613 6.93807 17.1284 6.92519C17.2955 6.91231 17.4632 6.94049 17.6169 7.00726C17.7706 7.07404 17.9057 7.17739 18.0103 7.30831C18.6893 8.17714 19.1852 9.17463 19.4678 10.2405Z" fill="inherit"/>
</svg>
