<svg width="96" height="16" viewBox="0 0 96 16" fill="none" xmlns="http://www.w3.org/2000/svg">
<g clip-path="url(#clip0_45_6765)">
<path d="M12.9 15.3998L8 12.7998L3.1 15.3998L4 9.9998L0 6.0998L5.5 5.2998L7.9 0.299805L10.3 5.2998L15.8 6.0998L12 9.9998L12.9 15.3998Z" fill="#DCDFE9"/>
</g>
<g clip-path="url(#clip1_45_6765)">
<path d="M32.9 15.3998L28 12.7998L23.1 15.3998L24 9.9998L20 6.0998L25.5 5.2998L27.9 0.299805L30.3 5.2998L35.8 6.0998L32 9.9998L32.9 15.3998Z" fill="#DCDFE9"/>
</g>
<g clip-path="url(#clip2_45_6765)">
<path d="M52.9 15.3998L48 12.7998L43.1 15.3998L44 9.9998L40 6.0998L45.5 5.2998L47.9 0.299805L50.3 5.2998L55.8 6.0998L52 9.9998L52.9 15.3998Z" fill="#DCDFE9"/>
</g>
<g clip-path="url(#clip3_45_6765)">
<path d="M72.9 15.3998L68 12.7998L63.1 15.3998L64 9.9998L60 6.0998L65.5 5.2998L67.9 0.299805L70.3 5.2998L75.8 6.0998L72 9.9998L72.9 15.3998Z" fill="#DCDFE9"/>
</g>
<g clip-path="url(#clip4_45_6765)">
<path d="M92.9 15.3998L88 12.7998L83.1 15.3998L84 9.9998L80 6.0998L85.5 5.2998L87.9 0.299805L90.3 5.2998L95.8 6.0998L92 9.9998L92.9 15.3998Z" fill="#DCDFE9"/>
</g>
<defs>
<clipPath id="clip0_45_6765">
<rect width="16" height="16" fill="white"/>
</clipPath>
<clipPath id="clip1_45_6765">
<rect width="16" height="16" fill="white" transform="translate(20)"/>
</clipPath>
<clipPath id="clip2_45_6765">
<rect width="16" height="16" fill="white" transform="translate(40)"/>
</clipPath>
<clipPath id="clip3_45_6765">
<rect width="16" height="16" fill="white" transform="translate(60)"/>
</clipPath>
<clipPath id="clip4_45_6765">
<rect width="16" height="16" fill="white" transform="translate(80)"/>
</clipPath>
</defs>
</svg>
