<svg width="42" height="42" viewBox="0 0 42 42" fill="none" xmlns="http://www.w3.org/2000/svg">
<path fill-rule="evenodd" clip-rule="evenodd" d="M20.1753 31.0629H22.6402C22.6402 31.0629 23.3847 30.9812 23.7648 30.5714C24.1147 30.1952 24.1035 29.4887 24.1035 29.4887C24.1035 29.4887 24.0554 26.1814 25.5904 25.6943C27.1036 25.2146 29.0467 28.8909 31.1062 30.3044C32.6636 31.3742 33.8471 31.1396 33.8471 31.1396L39.3539 31.0629C39.3539 31.0629 42.2347 30.8855 40.8688 28.6205C40.7568 28.4352 40.0733 26.9449 36.7743 23.8828C33.3214 20.6778 33.7838 21.1962 37.9432 15.6524C40.4764 12.2762 41.4891 10.215 41.1728 9.33214C40.871 8.4913 39.008 8.71354 39.008 8.71354L32.8075 8.75217C32.8075 8.75217 32.3479 8.68947 32.007 8.89324C31.6739 9.0931 31.4595 9.55886 31.4595 9.55886C31.4595 9.55886 30.4781 12.1715 29.1693 14.3934C26.4083 19.0818 25.3043 19.3293 24.8531 19.0382C23.8035 18.3597 24.0655 16.3124 24.0655 14.858C24.0655 10.3146 24.7546 8.4202 22.7236 7.92981C22.0496 7.7669 21.5536 7.65942 19.8299 7.64207C17.6175 7.61911 15.745 7.64878 14.6847 8.16829C13.9793 8.51369 13.4352 9.28343 13.7666 9.32766C14.1764 9.38252 15.1046 9.5779 15.5966 10.248C16.232 11.1123 16.2096 13.0538 16.2096 13.0538C16.2096 13.0538 16.5746 18.4022 15.357 19.0667C14.5212 19.5224 13.3747 18.592 10.9132 14.3385C9.65198 12.1597 8.69974 9.75144 8.69974 9.75144C8.69974 9.75144 8.51613 9.30135 8.18864 9.06063C7.79117 8.76897 7.23583 8.67604 7.23583 8.67604L1.34381 8.71466C1.34381 8.71466 0.459308 8.7393 0.134617 9.12389C-0.154246 9.46593 0.111664 10.1735 0.111664 10.1735C0.111664 10.1735 4.72452 20.9656 9.94756 26.4042C14.7368 31.3904 20.1753 31.0629 20.1753 31.0629Z" fill="#0077FF"/>
</svg>
