<svg width="251" height="44" viewBox="0 0 251 44" fill="none" xmlns="http://www.w3.org/2000/svg">
<path d="M76.732 33.532C74.884 33.532 73.2973 33.2053 71.972 32.552C70.6467 31.8987 69.564 31.0493 68.724 30.004C67.9027 28.9587 67.296 27.82 66.904 26.588C66.512 25.356 66.316 24.1707 66.316 23.032V22.416C66.316 21.1467 66.512 19.896 66.904 18.664C67.3147 17.432 67.94 16.312 68.78 15.304C69.62 14.296 70.684 13.4933 71.972 12.896C73.2787 12.28 74.8187 11.972 76.592 11.972C78.44 11.972 80.0453 12.308 81.408 12.98C82.7893 13.6333 83.8907 14.5667 84.712 15.78C85.5333 16.9747 86.028 18.3747 86.196 19.98H82.192C82.0427 19.0467 81.7067 18.2627 81.184 17.628C80.68 16.9747 80.036 16.4893 79.252 16.172C78.468 15.836 77.5813 15.668 76.592 15.668C75.584 15.668 74.688 15.8453 73.904 16.2C73.12 16.536 72.4667 17.0213 71.944 17.656C71.4213 18.2907 71.02 19.0373 70.74 19.896C70.4787 20.7547 70.348 21.7067 70.348 22.752C70.348 23.76 70.4787 24.6933 70.74 25.552C71.02 26.4107 71.4307 27.1667 71.972 27.82C72.5133 28.4547 73.176 28.9493 73.96 29.304C74.7627 29.6587 75.6867 29.836 76.732 29.836C78.2627 29.836 79.5507 29.4627 80.596 28.716C81.66 27.9507 82.304 26.8867 82.528 25.524H86.532C86.3453 26.98 85.8507 28.3147 85.048 29.528C84.2453 30.7413 83.144 31.712 81.744 32.44C80.344 33.168 78.6733 33.532 76.732 33.532ZM96.3272 33.532C94.9832 33.532 93.7979 33.3173 92.7712 32.888C91.7445 32.4587 90.8765 31.88 90.1672 31.152C89.4579 30.4053 88.9165 29.5653 88.5432 28.632C88.1885 27.6987 88.0112 26.728 88.0112 25.72V25.132C88.0112 24.0867 88.1979 23.0973 88.5712 22.164C88.9632 21.212 89.5139 20.372 90.2232 19.644C90.9512 18.8973 91.8285 18.3187 92.8552 17.908C93.8819 17.4787 95.0392 17.264 96.3272 17.264C97.6152 17.264 98.7725 17.4787 99.7992 17.908C100.826 18.3187 101.694 18.8973 102.403 19.644C103.131 20.372 103.682 21.212 104.055 22.164C104.429 23.0973 104.615 24.0867 104.615 25.132V25.72C104.615 26.728 104.429 27.6987 104.055 28.632C103.701 29.5653 103.169 30.4053 102.459 31.152C101.75 31.88 100.882 32.4587 99.8552 32.888C98.8285 33.3173 97.6525 33.532 96.3272 33.532ZM96.3272 30.2C97.2792 30.2 98.0819 29.9947 98.7352 29.584C99.3885 29.1547 99.8832 28.5853 100.219 27.876C100.555 27.148 100.723 26.3267 100.723 25.412C100.723 24.4787 100.546 23.6573 100.191 22.948C99.8552 22.22 99.3512 21.6507 98.6792 21.24C98.0259 20.8107 97.2419 20.596 96.3272 20.596C95.4125 20.596 94.6192 20.8107 93.9472 21.24C93.2939 21.6507 92.7899 22.22 92.4352 22.948C92.0805 23.6573 91.9032 24.4787 91.9032 25.412C91.9032 26.3267 92.0712 27.148 92.4072 27.876C92.7619 28.5853 93.2659 29.1547 93.9192 29.584C94.5725 29.9947 95.3752 30.2 96.3272 30.2ZM112.643 33.476C110.888 33.476 109.526 32.8973 108.555 31.74C107.603 30.5827 107.127 28.8653 107.127 26.588V17.768H111.019V26.924C111.019 27.8573 111.28 28.604 111.803 29.164C112.326 29.7053 113.035 29.976 113.931 29.976C114.827 29.976 115.555 29.6867 116.115 29.108C116.694 28.5293 116.983 27.7453 116.983 26.756V17.768H120.875V33H117.795V26.532H118.103C118.103 28.0627 117.907 29.3413 117.515 30.368C117.123 31.3947 116.535 32.1693 115.751 32.692C114.967 33.2147 113.987 33.476 112.811 33.476H112.643ZM124.786 33V17.796H127.866V24.236H127.782C127.782 22.052 128.249 20.4 129.182 19.28C130.115 18.16 131.487 17.6 133.298 17.6H133.858V20.988H132.794C131.487 20.988 130.47 21.3427 129.742 22.052C129.033 22.7427 128.678 23.7507 128.678 25.076V33H124.786ZM141.418 33.476C139.327 33.476 137.684 33.0373 136.49 32.16C135.314 31.264 134.698 30.032 134.642 28.464H138.142C138.198 28.9867 138.487 29.4627 139.01 29.892C139.532 30.3213 140.354 30.536 141.474 30.536C142.407 30.536 143.144 30.368 143.686 30.032C144.246 29.696 144.526 29.2387 144.526 28.66C144.526 28.156 144.311 27.7547 143.882 27.456C143.471 27.1573 142.762 26.9613 141.754 26.868L140.41 26.728C138.711 26.5413 137.404 26.056 136.49 25.272C135.575 24.488 135.118 23.4427 135.118 22.136C135.118 21.0907 135.379 20.2133 135.902 19.504C136.424 18.7947 137.143 18.2627 138.058 17.908C138.991 17.5347 140.055 17.348 141.25 17.348C143.116 17.348 144.628 17.7587 145.786 18.58C146.943 19.4013 147.55 20.6053 147.606 22.192H144.106C144.068 21.6693 143.807 21.2213 143.322 20.848C142.836 20.4747 142.136 20.288 141.222 20.288C140.4 20.288 139.766 20.4467 139.318 20.764C138.87 21.0813 138.646 21.492 138.646 21.996C138.646 22.4813 138.823 22.8547 139.178 23.116C139.551 23.3773 140.148 23.5547 140.97 23.648L142.314 23.788C144.106 23.9747 145.506 24.4693 146.514 25.272C147.54 26.0747 148.054 27.1573 148.054 28.52C148.054 29.528 147.774 30.4053 147.214 31.152C146.672 31.88 145.907 32.4493 144.918 32.86C143.928 33.2707 142.762 33.476 141.418 33.476ZM157.513 33.532C156.206 33.532 155.058 33.308 154.069 32.86C153.098 32.412 152.286 31.8147 151.633 31.068C150.998 30.3027 150.513 29.4533 150.177 28.52C149.86 27.5867 149.701 26.6347 149.701 25.664V25.132C149.701 24.124 149.86 23.1533 150.177 22.22C150.513 21.268 150.998 20.428 151.633 19.7C152.286 18.9533 153.089 18.3653 154.041 17.936C154.993 17.488 156.094 17.264 157.345 17.264C158.988 17.264 160.36 17.628 161.461 18.356C162.581 19.0653 163.421 20.008 163.981 21.184C164.541 22.3413 164.821 23.592 164.821 24.936V26.336H151.353V23.956H162.385L161.181 25.132C161.181 24.1613 161.041 23.3307 160.761 22.64C160.481 21.9493 160.052 21.4173 159.473 21.044C158.913 20.6707 158.204 20.484 157.345 20.484C156.486 20.484 155.758 20.68 155.161 21.072C154.564 21.464 154.106 22.0333 153.789 22.78C153.49 23.508 153.341 24.3853 153.341 25.412C153.341 26.364 153.49 27.2133 153.789 27.96C154.088 28.688 154.545 29.2667 155.161 29.696C155.777 30.1067 156.561 30.312 157.513 30.312C158.465 30.312 159.24 30.1253 159.837 29.752C160.434 29.36 160.817 28.884 160.985 28.324H164.569C164.345 29.3693 163.916 30.284 163.281 31.068C162.646 31.852 161.834 32.4587 160.845 32.888C159.874 33.3173 158.764 33.532 157.513 33.532ZM171.18 33L165.972 12.56H170.088L174.316 30.34L173.224 29.696H176.024L174.792 30.34L178.124 13.344H181.54L177.396 33H171.18ZM183.388 33L178.88 13.344H182.436L186.272 30.34L185.068 29.696H187.812L186.748 30.34L190.472 12.56H194.364L189.716 33H183.388ZM203.272 33.532C201.928 33.532 200.743 33.3173 199.716 32.888C198.689 32.4587 197.821 31.88 197.112 31.152C196.403 30.4053 195.861 29.5653 195.488 28.632C195.133 27.6987 194.956 26.728 194.956 25.72V25.132C194.956 24.0867 195.143 23.0973 195.516 22.164C195.908 21.212 196.459 20.372 197.168 19.644C197.896 18.8973 198.773 18.3187 199.8 17.908C200.827 17.4787 201.984 17.264 203.272 17.264C204.56 17.264 205.717 17.4787 206.744 17.908C207.771 18.3187 208.639 18.8973 209.348 19.644C210.076 20.372 210.627 21.212 211 22.164C211.373 23.0973 211.56 24.0867 211.56 25.132V25.72C211.56 26.728 211.373 27.6987 211 28.632C210.645 29.5653 210.113 30.4053 209.404 31.152C208.695 31.88 207.827 32.4587 206.8 32.888C205.773 33.3173 204.597 33.532 203.272 33.532ZM203.272 30.2C204.224 30.2 205.027 29.9947 205.68 29.584C206.333 29.1547 206.828 28.5853 207.164 27.876C207.5 27.148 207.668 26.3267 207.668 25.412C207.668 24.4787 207.491 23.6573 207.136 22.948C206.8 22.22 206.296 21.6507 205.624 21.24C204.971 20.8107 204.187 20.596 203.272 20.596C202.357 20.596 201.564 20.8107 200.892 21.24C200.239 21.6507 199.735 22.22 199.38 22.948C199.025 23.6573 198.848 24.4787 198.848 25.412C198.848 26.3267 199.016 27.148 199.352 27.876C199.707 28.5853 200.211 29.1547 200.864 29.584C201.517 29.9947 202.32 30.2 203.272 30.2ZM214.408 33V17.796H217.488V24.236H217.404C217.404 22.052 217.87 20.4 218.804 19.28C219.737 18.16 221.109 17.6 222.92 17.6H223.48V20.988H222.416C221.109 20.988 220.092 21.3427 219.364 22.052C218.654 22.7427 218.3 23.7507 218.3 25.076V33H214.408ZM225.72 33V12.56H229.612V33H225.72ZM223.816 15.472V12.56H229.612V15.472H223.816ZM239.795 33.504C238.731 33.504 237.751 33.308 236.855 32.916C235.959 32.524 235.184 31.9733 234.531 31.264C233.877 30.5547 233.373 29.7333 233.019 28.8C232.664 27.848 232.487 26.8213 232.487 25.72V25.132C232.487 24.0493 232.655 23.032 232.991 22.08C233.345 21.128 233.831 20.2973 234.447 19.588C235.081 18.8787 235.837 18.328 236.715 17.936C237.611 17.5253 238.6 17.32 239.683 17.32C240.877 17.32 241.923 17.5813 242.819 18.104C243.733 18.608 244.461 19.3733 245.003 20.4C245.544 21.4267 245.843 22.7147 245.899 24.264L244.751 22.92V12.56H248.643V33H245.563V26.532H246.235C246.179 28.0813 245.861 29.3787 245.283 30.424C244.704 31.4507 243.939 32.2253 242.987 32.748C242.053 33.252 240.989 33.504 239.795 33.504ZM240.663 30.228C241.428 30.228 242.128 30.06 242.763 29.724C243.397 29.3693 243.901 28.8653 244.275 28.212C244.667 27.54 244.863 26.756 244.863 25.86V24.74C244.863 23.844 244.667 23.0973 244.275 22.5C243.883 21.884 243.369 21.4173 242.735 21.1C242.1 20.764 241.409 20.596 240.663 20.596C239.823 20.596 239.076 20.8013 238.423 21.212C237.788 21.604 237.284 22.164 236.911 22.892C236.556 23.62 236.379 24.4693 236.379 25.44C236.379 26.4107 236.565 27.26 236.939 27.988C237.312 28.6973 237.816 29.248 238.451 29.64C239.104 30.032 239.841 30.228 240.663 30.228Z" fill="#1D2948"/>
<g clip-path="url(#clip0_305_12211)">
<path d="M26.5643 26.4971C25.8438 25.3819 21.1361 19.1759 6.98926 18.8849L8.16616 15.9274C24.4267 16.2425 28.1976 23.8062 28.75 25.0425C28.0054 25.4789 27.2849 25.9637 26.5643 26.4971Z" fill="#172547"/>
<path d="M21.8088 -2.10928e-06C29.855 -1.40586e-06 37.0605 4.4606 40.8314 11.2485C40.0148 11.6364 39.1501 12.1212 38.2614 12.7273C34.9949 6.86061 28.7741 2.98182 21.8088 2.98182C11.4328 2.98182 2.97829 11.5151 2.97829 21.9879C2.97829 32.4606 11.4328 40.9939 21.8088 40.9939C29.6388 40.9939 36.5321 36.2424 39.3663 28.8727L42.8009 28.0727L42.1284 29.9636C38.8379 38.497 30.8637 44 21.8088 44C9.77552 44 8.62572e-07 34.1333 1.92436e-06 21.9879C2.98403e-06 9.86666 9.77552 -3.16126e-06 21.8088 -2.10928e-06Z" fill="#172547"/>
<path d="M27.7413 31.7822L28.654 31.055C38.958 22.8368 51.3995 24.8004 51.5196 24.8247L52 21.8671C51.4476 21.7701 38.8859 19.758 27.7173 28.0004C16.5487 19.758 4.70762 21.6489 4.1552 21.7459L3.79492 24.8004C3.91501 24.7762 16.4767 22.8125 26.8046 31.0307L27.7413 31.7822Z" fill="#172547"/>
<path d="M29.3744 24.6787C26.3481 17.1393 16.4285 14.0848 16.1162 14.0363L17.7495 11.6605C18.1338 11.709 28.1735 14.4242 31.8963 23.3696C31.0557 23.7333 30.2151 24.1696 29.3744 24.6787Z" fill="#172547"/>
</g>
<defs>
<clipPath id="clip0_305_12211">
<rect width="52" height="44" fill="white" transform="matrix(1 8.74228e-08 8.74228e-08 -1 0 44)"/>
</clipPath>
</defs>
</svg>
