<svg width="32" height="32" viewBox="0 0 32 32" fill="none" xmlns="http://www.w3.org/2000/svg">
<path d="M4.86572 13.7314H8.00935V25.528H4.86572V13.7314Z" fill="#3C50E0"/>
<path d="M23.9907 13.7314H27.1343V25.528H23.9907V13.7314Z" fill="#3C50E0"/>
<path d="M14.4282 13.7314H17.5718V25.528H14.4282V13.7314Z" fill="#3C50E0"/>
<path d="M3.61572 25.5283H9.25935V28.3116H3.61572V25.5283Z" fill="#3C50E0"/>
<path d="M3.61572 10.9482H9.25935V13.7315H3.61572V10.9482Z" fill="#3C50E0"/>
<path d="M22.7407 25.5283H28.3843V28.3116H22.7407V25.5283Z" fill="#3C50E0"/>
<path d="M22.7407 10.9482H28.3843V13.7315H22.7407V10.9482Z" fill="#3C50E0"/>
<path d="M13.1782 25.5283H18.8218V28.3116H13.1782V25.5283Z" fill="#3C50E0"/>
<path d="M13.1782 10.9482H18.8218V13.7315H13.1782V10.9482Z" fill="#3C50E0"/>
<path d="M29.3856 27.6865H2.61426C2.26907 27.6865 1.98926 27.9663 1.98926 28.3115V31.3754C1.98926 31.7206 2.26907 32.0004 2.61426 32.0004H29.3855C29.7306 32.0004 30.0105 31.7206 30.0105 31.3754V28.3116C30.0106 27.9663 29.7307 27.6865 29.3856 27.6865V27.6865ZM28.7606 30.7504H3.23926V28.9366H28.7605V30.7504H28.7606Z" fill="#1D2948"/>
<path d="M30.0106 7.89219C30.013 7.66931 29.8956 7.46187 29.7043 7.34744C29.6887 7.33812 29.6782 7.33194 29.6753 7.33038L16.2979 0.0755625C16.112 -0.0251875 15.8878 -0.0251875 15.702 0.0755625L2.32615 7.32956C2.32303 7.33119 2.31434 7.33613 2.30171 7.34344C2.10728 7.45619 1.98753 7.66506 1.98928 7.88981V7.89062V10.9481C1.98928 11.2933 2.26909 11.5731 2.61428 11.5731H29.3855C29.7307 11.5731 30.0105 11.2933 30.0105 10.9481V7.89294C30.0106 7.89275 30.0106 7.8925 30.0106 7.89219ZM16 1.336L26.9221 7.25931H5.07778L16 1.336ZM28.7606 10.3231H3.23928V8.50931H28.7605V10.3231H28.7606Z" fill="#1D2948"/>
<path d="M16 3.24219C15.6548 3.24219 15.375 3.522 15.375 3.86719V5.01612C15.375 5.36131 15.6548 5.64112 16 5.64112C16.3451 5.64112 16.625 5.36131 16.625 5.01612V3.86719C16.625 3.522 16.3451 3.24219 16 3.24219Z" fill="#1D2948"/>
</svg>
