<svg width="80" height="80" viewBox="0 0 80 80" fill="none" xmlns="http://www.w3.org/2000/svg">
<path d="M22.0312 54.8438H57.9688L56.8323 29.8438H69.0625V64.2188H50.1562L45.4688 67.3438H32.9688L28.2812 64.2188H10.9375V29.8438H23.1672L22.0312 54.8438Z" fill="#F3CFFD"/>
<path d="M78.4375 62.6562H76.875V23.5938C76.875 22.7308 76.1755 22.0312 75.3125 22.0312H58.0414L57.9672 20.3978C57.9292 19.5633 57.2417 18.9062 56.4062 18.9062H50.9375V14.2188C50.9375 8.18781 46.0309 3.28125 40 3.28125C33.9691 3.28125 29.0625 8.18781 29.0625 14.2188V18.9062H23.5938C22.7584 18.9062 22.0708 19.5633 22.0328 20.3978L21.9586 22.0312H4.6875C3.82453 22.0312 3.125 22.7308 3.125 23.5938V62.6562H1.5625C0.699531 62.6562 0 63.3559 0 64.2188C0 71.1113 5.6075 76.7188 12.5 76.7188H67.5C74.3925 76.7188 80 71.1113 80 64.2188C80 63.3559 79.3005 62.6562 78.4375 62.6562ZM32.1875 14.2188C32.1875 9.91094 35.6922 6.40625 40 6.40625C44.3078 6.40625 47.8125 9.91094 47.8125 14.2188V18.9062H32.1875V14.2188ZM54.9131 22.0312L56.3336 53.2812H23.6664L25.0869 22.0312H54.9131ZM6.25 25.1562H21.8166L20.4703 54.7728C20.4298 55.6622 21.1408 56.4062 22.0312 56.4062H57.9719C58.8348 56.4062 59.5344 55.7066 59.5344 54.8438C59.5344 54.8239 58.1844 25.1767 58.1834 25.1562H73.75V62.6562H50.1562C49.8478 62.6562 49.5462 62.7475 49.2895 62.9187L44.9956 65.7812H33.4419L29.148 62.9187C28.8912 62.7475 28.5897 62.6562 28.2812 62.6562H6.25V25.1562ZM67.5 73.5938H12.5C7.86281 73.5938 4.00125 70.2095 3.25516 65.7812H27.8081L32.102 68.6438C32.3587 68.815 32.6603 68.9062 32.9688 68.9062H45.4688C45.7772 68.9062 46.0788 68.815 46.3355 68.6438L50.6294 65.7812H76.7448C75.9987 70.2095 72.1372 73.5938 67.5 73.5938Z" fill="#1D2948"/>
<path d="M35.5802 43.37C35.98 43.37 36.38 43.2174 36.685 42.9124L45.5238 34.0736C46.1339 33.4634 46.1339 32.4741 45.5238 31.8638C44.9136 31.2537 43.9243 31.2537 43.3139 31.8638L34.4752 40.7025C33.865 41.3127 33.865 42.302 34.4752 42.9122C34.7804 43.2175 35.1804 43.37 35.5802 43.37Z" fill="#1D2948" stroke="#FFF1F1" stroke-width="0.5"/>
<path d="M44.4184 40.2451C43.5698 40.2451 42.8576 40.9623 42.8574 41.8075C42.8573 42.6254 43.5735 43.3701 44.4182 43.3701C45.271 43.3701 45.9807 42.6596 45.9807 41.8076C45.9809 40.957 45.2704 40.2453 44.4184 40.2451Z" fill="#1D2948" stroke="#FFF1F1" stroke-width="0.5"/>
<path d="M35.5811 34.5312C36.4321 34.5312 37.1436 33.8192 37.1436 32.9688C37.1436 32.1175 36.4329 31.4062 35.5812 31.4062C34.7295 31.4062 34.0187 32.1195 34.0186 32.9688C34.0186 33.8011 34.7168 34.5312 35.5811 34.5312Z" fill="#1D2948" stroke="#FFF1F1" stroke-width="0.5"/>
</svg>
