<svg width="32" height="32" viewBox="0 0 32 32" fill="none" xmlns="http://www.w3.org/2000/svg">
<path d="M27.625 7.5625H4.375V22.5625H11.3125L13.1875 23.8125H18.1875L20.0625 22.5625H27.625V7.5625Z" fill="#3C50E0"/>
<path d="M31.375 21.9375H30.75V5.0625C30.75 4.71738 30.4702 4.4375 30.125 4.4375H1.875C1.52981 4.4375 1.25 4.71738 1.25 5.0625V21.9375H0.625C0.279813 21.9375 0 22.2174 0 22.5625C0 25.3195 2.243 27.5625 5 27.5625H27C29.757 27.5625 32 25.3195 32 22.5625C32 22.2174 31.7202 21.9375 31.375 21.9375ZM2.5 5.6875H29.5V21.9375H20.0625C19.9391 21.9375 19.8185 21.974 19.7158 22.0425L17.9982 23.1875H13.3767L11.6592 22.0425C11.5565 21.974 11.4359 21.9375 11.3125 21.9375H2.5V5.6875ZM27 26.3125H5C3.14513 26.3125 1.6005 24.9588 1.30206 23.1875H1.875H11.1233L12.8408 24.3325C12.9435 24.401 13.0641 24.4375 13.1875 24.4375H18.1875C18.3109 24.4375 18.4315 24.401 18.5342 24.3325L20.2518 23.1875H30.6979C30.3995 24.9588 28.8549 26.3125 27 26.3125Z" fill="#1D2948"/>
<path d="M11.442 17.1206L9.38392 15.0625L11.442 13.0044C11.686 12.7604 11.686 12.3646 11.442 12.1205C11.1979 11.8765 10.8022 11.8765 10.558 12.1205L8.05805 14.6205C7.81398 14.8646 7.81398 15.2603 8.05805 15.5044L10.558 18.0044C10.8022 18.2485 11.1979 18.2484 11.442 18.0044C11.6861 17.7604 11.6861 17.3646 11.442 17.1206Z" fill="white"/>
<path d="M20.5581 18.0044C20.8022 18.2485 21.1979 18.2484 21.442 18.0044L23.942 15.5044C24.1861 15.2604 24.1861 14.8646 23.942 14.6205L21.442 12.1205C21.198 11.8765 20.8022 11.8765 20.5581 12.1205C20.314 12.3646 20.314 12.7603 20.5581 13.0044L22.6162 15.0625L20.5581 17.1206C20.314 17.3646 20.314 17.7604 20.5581 18.0044Z" fill="white"/>
<path d="M14.1631 17.7139L18.5825 13.2945C18.8266 13.0504 18.8266 12.6547 18.5825 12.4105C18.3385 12.1665 17.9427 12.1665 17.6986 12.4105L13.2792 16.83C13.0352 17.074 13.0352 17.4698 13.2792 17.7139C13.5234 17.958 13.919 17.9579 14.1631 17.7139V17.7139Z" fill="white"/>
</svg>
