<svg width="32" height="32" viewBox="0 0 32 32" fill="none" xmlns="http://www.w3.org/2000/svg">
<path d="M11.9551 28.0379H4.72242C4.31673 28.0379 3.98779 27.7091 3.98779 27.3033V20.0706C3.98779 19.6649 4.31667 19.3359 4.72242 19.3359H11.9552C12.3609 19.3359 12.6898 19.6648 12.6898 20.0706V27.3033C12.6897 27.709 12.3609 28.0379 11.9551 28.0379Z" fill="#3C50E0"/>
<path d="M23.6877 27.7741H23.687C21.2842 27.7741 19.3364 25.8263 19.3364 23.4235V23.4229C19.3364 21.0201 21.2843 19.0723 23.687 19.0723H23.6877C26.0905 19.0723 28.0383 21.0201 28.0383 23.4229V23.4235C28.0384 25.8263 26.0905 27.7741 23.6877 27.7741Z" fill="#3C50E0"/>
<path d="M17.8492 12.8632C18.2159 12.9688 18.6034 12.9005 18.9123 12.6762C19.2209 12.4519 19.4056 12.1045 19.4186 11.7231L19.4843 9.79989L20.5616 8.20533C20.7752 7.88908 20.8301 7.49958 20.7121 7.13664C20.5942 6.77364 20.3209 6.49083 19.9621 6.36052L18.1534 5.7037L16.9698 4.18645C16.7351 3.88552 16.3816 3.71295 15.9999 3.71289C15.9999 3.71289 15.9999 3.71289 15.9998 3.71289C15.6182 3.71289 15.2646 3.88552 15.0299 4.18639L13.8463 5.70364L12.0375 6.36045C11.6788 6.49077 11.4054 6.77364 11.2875 7.13658C11.1696 7.49958 11.2245 7.88908 11.4381 8.20527L12.5153 9.79983L12.5811 11.723C12.5941 12.1045 12.7787 12.4518 13.0875 12.6761C13.301 12.8313 13.5521 12.9117 13.808 12.9117C13.9221 12.9117 14.0373 12.8957 14.1505 12.8631L15.9998 12.3314L17.8492 12.8632ZM15.8271 11.0805L13.8295 11.6548L13.7585 9.57752C13.7545 9.4602 13.7175 9.34633 13.6518 9.24902L12.4882 7.5267L14.4419 6.81727C14.5523 6.7772 14.6491 6.70683 14.7214 6.6142L15.9998 4.97533L17.2783 6.6142C17.3504 6.70677 17.4473 6.77714 17.5578 6.81727L19.5115 7.5267L18.3479 9.24902C18.2822 9.34633 18.2452 9.4602 18.2412 9.57752L18.1701 11.6548L16.1726 11.0805C16.0596 11.048 15.9399 11.048 15.8271 11.0805V11.0805Z" fill="#1D2948"/>
<path d="M29.5914 15.375H24.0731C24.2626 15.0311 24.3705 14.6361 24.3705 14.2164V2.40856C24.3705 1.0805 23.29 0 21.9619 0H10.1541C8.82594 0 7.74544 1.0805 7.74544 2.40856V14.2164C7.74544 14.6361 7.85338 15.0311 8.04288 15.375H2.40856C1.0805 15.375 0 16.4555 0 17.7836V29.5914C0 30.9195 1.0805 32 2.40856 32H14.2164C14.9227 32 15.5591 31.6944 16 31.2084C16.441 31.6944 17.0772 32 17.7836 32H29.5914C30.9195 32 32 30.9195 32 29.5914V17.7836C32 16.4555 30.9195 15.375 29.5914 15.375V15.375ZM8.99544 14.2164V2.40856C8.99544 1.76975 9.51519 1.25 10.1541 1.25H21.9619C22.6008 1.25 23.1205 1.76975 23.1205 2.40856V14.2164C23.1205 14.8552 22.6008 15.375 21.9619 15.375H10.1541C9.51519 15.375 8.99544 14.8552 8.99544 14.2164ZM14.2164 30.75H2.40856C1.76975 30.75 1.25 30.2303 1.25 29.5914V17.7836C1.25 17.1447 1.76975 16.625 2.40856 16.625H14.2164C14.8552 16.625 15.375 17.1447 15.375 17.7836V29.5914C15.375 30.2303 14.8552 30.75 14.2164 30.75ZM30.75 29.5914C30.75 30.2303 30.2303 30.75 29.5914 30.75H17.7836C17.1447 30.75 16.625 30.2303 16.625 29.5914V17.7836C16.625 17.1447 17.1447 16.625 17.7836 16.625H29.5914C30.2303 16.625 30.75 17.1447 30.75 17.7836V29.5914Z" fill="#1D2948"/>
</svg>
