<svg width="32" height="32" viewBox="0 0 32 32" fill="none" xmlns="http://www.w3.org/2000/svg">
<path d="M24.125 13.7666C23.7799 13.7666 23.5 14.0465 23.5 14.3916V20.134C21.2045 21.3897 18.6194 22.0517 16 22.0517C13.3806 22.0517 10.7956 21.3897 8.5 20.134V14.3916C8.5 14.0465 8.22012 13.7666 7.875 13.7666C7.52988 13.7666 7.25 14.0465 7.25 14.3916V20.4997C7.25 20.7229 7.36912 20.9293 7.5625 21.0409C10.1243 22.52 13.0419 23.3017 16 23.3017C18.9581 23.3017 21.8758 22.52 24.4375 21.0409C24.6309 20.9293 24.75 20.7229 24.75 20.4997V14.3916C24.75 14.0465 24.4701 13.7666 24.125 13.7666Z" fill="#1D2948"/>
<path d="M28.9999 18.4003V12.7275C28.9999 12.3824 28.7201 12.1025 28.3749 12.1025C28.0298 12.1025 27.7499 12.3824 27.7499 12.7275V18.4003C26.9348 18.6645 26.3438 19.4311 26.3438 20.3332V25.1769C26.3438 25.522 26.6236 25.8019 26.9688 25.8019C27.3139 25.8019 27.5938 25.522 27.5938 25.1769V23.3019H29.1562V25.1769C29.1562 25.522 29.4361 25.8019 29.7812 25.8019C30.1264 25.8019 30.4062 25.522 30.4062 25.1769V20.3332C30.4062 19.4311 29.8151 18.6645 28.9999 18.4003ZM29.1562 22.0519H27.5938V20.3332C27.5938 19.9024 27.9442 19.552 28.3749 19.552C28.8057 19.552 29.1562 19.9024 29.1562 20.3332V22.0519Z" fill="#1D2948"/>
<path fill-rule="evenodd" clip-rule="evenodd" d="M0 12.0519L16 6.19824L32 12.0519L16 17.9056L0 12.0519Z" fill="#3C50E0"/>
</svg>
