<svg width="44" height="42" viewBox="0 0 44 42" fill="none" xmlns="http://www.w3.org/2000/svg">
  <path d="M35.1289 3.81836H10.7824C8.00132 3.81836 5.73828 6.07672 5.73828 8.8521V33.1483C5.73828 35.9236 8.00132 38.182 10.7824 38.182H35.1289C37.91 38.182 40.1731 35.9236 40.1731 33.1483V8.8521C40.1731 6.07672 37.91 3.81836 35.1289 3.81836ZM23.0229 29.9938C18.0163 29.9938 13.9434 25.9293 13.9434 20.9331C13.9434 15.9368 18.0163 11.8723 23.0229 11.8723C28.0295 11.8723 32.1024 15.9368 32.1024 20.9331C32.1024 25.9293 28.0295 29.9938 23.0229 29.9938ZM33.1112 13.8858C31.4425 13.8858 30.0847 12.5309 30.0847 10.8656C30.0847 9.20026 31.4425 7.84535 33.1112 7.84535C34.78 7.84535 36.1377 9.20026 36.1377 10.8656C36.1377 12.5309 34.78 13.8858 33.1112 13.8858Z"/>
  <path d="M23.135 15.3176C19.9708 15.3176 17.3959 17.8872 17.3959 21.0449C17.3959 24.2026 19.9708 26.7722 23.135 26.7722C26.2992 26.7722 28.8741 24.2026 28.8741 21.0449C28.8741 17.8872 26.2992 15.3176 23.135 15.3176Z" fill="url(#paint1_linear_45_6382)"/>
  <defs>
  <linearGradient x1="9.84589" y1="34.0829" x2="34.2631" y2="9.6151" >
  <stop stop-color="#FEE411"/>
  <stop offset="0.0518459" stop-color="#FEDB16"/>
  <stop offset="0.1381" stop-color="#FEC125"/>
  <stop offset="0.2481" stop-color="#FE983D"/>
  <stop offset="0.3762" stop-color="#FE5F5E"/>
  <stop offset="0.5" stop-color="#FE2181"/>
  <stop offset="1" stop-color="#9000DC"/>
  </linearGradient>
  <linearGradient x1="9.84589" y1="34.0829" x2="34.2631" y2="9.6151" >
  <stop stop-color="#FEE411"/>
  <stop offset="0.0518459" stop-color="#FEDB16"/>
  <stop offset="0.1381" stop-color="#FEC125"/>
  <stop offset="0.2481" stop-color="#FE983D"/>
  <stop offset="0.3762" stop-color="#FE5F5E"/>
  <stop offset="0.5" stop-color="#FE2181"/>
  <stop offset="1" stop-color="#9000DC"/>
  </linearGradient>
  </defs>
</svg>
