<svg width="17" height="16" viewBox="0 0 17 16" fill="inherit" xmlns="http://www.w3.org/2000/svg">
<path fill-rule="evenodd" clip-rule="evenodd" d="M16.5 11.3333C16.5 13.2203 14.9703 14.75 13.0833 14.75L4.08334 14.75C2.01227 14.75 0.333334 13.0711 0.333334 11L0.333333 5C0.333333 2.92893 2.01226 1.25 4.08333 1.25L6.41667 1.25C6.83088 1.25 7.16667 1.58579 7.16667 2C7.16667 2.41421 6.83088 2.75 6.41667 2.75L4.08333 2.75C2.84069 2.75 1.83333 3.75736 1.83333 5L1.83333 11C1.83333 12.2426 2.8407 13.25 4.08334 13.25L13.0833 13.25C14.1419 13.25 15 12.3919 15 11.3333L16.5 11.3333Z" fill="inherit"/>
<path fill-rule="evenodd" clip-rule="evenodd" d="M9.67164 1.43018C9.67164 1.0155 10.007 0.679332 10.4208 0.679332L15.2704 0.679331C15.4691 0.679331 15.6597 0.758437 15.8001 0.899248C15.9406 1.04006 16.0196 1.23104 16.0196 1.43017L16.0196 6.29073C16.0196 6.70541 15.6842 7.04157 15.2704 7.04157C14.8567 7.04157 14.5213 6.70541 14.5213 6.29073L14.5213 2.18102L10.4208 2.18102C10.007 2.18102 9.67164 1.84486 9.67164 1.43018Z" fill="inherit"/>
<path fill-rule="evenodd" clip-rule="evenodd" d="M15.149 1.59261C15.4415 1.88583 15.4415 2.36124 15.149 2.65446L11.4222 6.38968C11.1296 6.6829 10.6553 6.6829 10.3627 6.38968C10.0701 6.09645 10.0701 5.62105 10.3627 5.32782L14.0895 1.59261C14.3821 1.29939 14.8564 1.29939 15.149 1.59261Z" fill="inherit"/>
</svg>
