<svg width="16" height="17" viewBox="0 0 16 17" fill="inherit" xmlns="http://www.w3.org/2000/svg">
<g clip-path="url(#clip0_45_6946)">
<path d="M15.372 5.75C15.7752 5.34688 16.0002 4.80937 16.0002 4.2375C16.0002 3.66563 15.7783 3.12812 15.372 2.725L13.7783 1.13125C13.372 0.721875 12.8345 0.5 12.2627 0.5C11.6908 0.5 11.1533 0.721875 10.7502 1.12813L0.809548 11.0688C0.253298 11.625 -0.0404524 12.3906 0.00329755 13.175L0.000172555 15.7188C0.000172555 15.925 0.0814226 16.125 0.228298 16.2719C0.375173 16.4188 0.572048 16.5 0.781423 16.5L3.32517 16.4969C4.10955 16.5406 4.87517 16.2469 5.43142 15.6906C5.73767 15.3844 5.73767 14.8906 5.43142 14.5844C5.12517 14.2781 4.63142 14.2781 4.32517 14.5844C4.08142 14.8281 3.7408 14.9563 3.39705 14.9344C3.38142 14.9344 3.36267 14.9312 3.34705 14.9312L1.56267 14.9375L1.5658 13.1531C1.5658 13.1375 1.5658 13.1187 1.56267 13.1031C1.5408 12.7594 1.66892 12.4187 1.91267 12.175L10.197 3.89062L12.6095 6.30312L6.38455 12.5281C6.0783 12.8344 6.0783 13.3281 6.38455 13.6344C6.6908 13.9406 7.18455 13.9406 7.4908 13.6344L15.372 5.75ZM11.3033 2.78437L11.8564 2.23125C11.9658 2.12188 12.1095 2.0625 12.2658 2.0625C12.4189 2.0625 12.5658 2.12188 12.6752 2.23125L14.2689 3.825C14.4939 4.05 14.4939 4.41875 14.2689 4.64375L13.7158 5.19688L11.3033 2.78437Z" fill="inherit"/>
<path d="M15.2188 14.9375H8.17188C7.74062 14.9375 7.39062 15.2875 7.39062 15.7188C7.39062 16.15 7.74062 16.5 8.17188 16.5H15.2188C15.65 16.5 16 16.15 16 15.7188C16 15.2875 15.65 14.9375 15.2188 14.9375Z" fill="inherit"/>
</g>
<defs>
<clipPath id="clip0_45_6946">
<rect width="16" height="16" fill="white" transform="translate(0 0.5)"/>
</clipPath>
</defs>
</svg>
