<svg width="32" height="32" viewBox="0 0 32 32" fill="none" xmlns="http://www.w3.org/2000/svg">
<g clip-path="url(#clip0_45_7720)">
<path d="M30.7353 14.1035C30.7353 14.0981 30.7353 14.0927 30.7353 14.0872C30.7353 6.64848 24.7109 0.618164 17.2793 0.618164V14.1035H30.7353Z" fill="#3C50E0"/>
<path d="M31.8171 16.4792C31.6998 16.3618 31.5408 16.2959 31.3749 16.2959H17.919C17.6662 16.2959 17.4384 16.4481 17.3416 16.6816C17.2448 16.915 17.2982 17.1838 17.4768 17.3626L26.9835 26.8785C27.1006 26.9958 27.2596 27.0618 27.4253 27.0618H27.4256C27.5912 27.0618 27.7501 26.996 27.8673 26.879C30.5278 24.2205 31.9954 20.6842 31.9998 16.9216C32.0001 16.7557 31.9343 16.5966 31.8171 16.4792V16.4792ZM27.4155 25.5424L26.7201 24.8463L27.7968 23.7695C28.0409 23.5255 28.0409 23.1297 27.7968 22.8856C27.5527 22.6416 27.1571 22.6416 26.9129 22.8856L25.8366 23.962L24.6625 22.7868L27.5095 19.9397C27.7536 19.6956 27.7536 19.2999 27.5095 19.0558C27.2654 18.8118 26.8698 18.8118 26.6256 19.0558L23.779 21.9024L22.7006 20.823L23.6478 19.8758C23.8918 19.6317 23.8918 19.236 23.6478 18.9919C23.4036 18.7478 23.008 18.7478 22.7638 18.9919L21.8171 19.9386L19.4266 17.5457H30.7343C30.5886 20.5323 29.4268 23.3316 27.4155 25.5424V25.5424Z" fill="#1D2948"/>
<path d="M14.7059 17.0461V3.81934C14.7059 3.47415 14.4261 3.19434 14.0809 3.19434C10.3197 3.19434 6.78356 4.66046 4.12394 7.32265C1.46463 9.98465 0 13.5239 0 17.2885C0 21.053 1.46463 24.5923 4.124 27.2543C6.78356 29.9165 10.3197 31.3826 14.081 31.3826C17.8377 31.3826 21.3708 29.9195 24.0294 27.2628C24.2736 27.0188 24.2737 26.6232 24.0298 26.3789L14.7059 17.0461ZM14.0809 30.1326C7.00594 30.1326 1.25 24.3707 1.25 17.2885C1.25 10.4158 6.66994 4.78665 13.4559 4.4594V16.9615L6.8655 21.1512C6.57419 21.3363 6.48819 21.7226 6.67338 22.0139C6.79244 22.2013 6.99475 22.3037 7.20138 22.3037C7.31606 22.3037 7.43213 22.2722 7.53606 22.206L13.9931 18.1012L22.6933 26.8098C20.3294 28.9573 17.2951 30.1326 14.0809 30.1326Z" fill="#1D2948"/>
</g>
<defs>
<clipPath id="clip0_45_7720">
<rect width="32" height="32" fill="white"/>
</clipPath>
</defs>
</svg>
