<svg width="32" height="32" viewBox="0 0 32 32" fill="none" xmlns="http://www.w3.org/2000/svg">
<path d="M9.82788 25.0999L9.41063 24.475C9.41063 23.3736 9.41063 22.5894 9.41063 22.5894C9.167 22.5894 8.45119 22.5894 7.52563 22.5894L6.90063 22.1719L6.27563 22.5894C3.95588 22.5894 1.14781 22.5894 0.625 22.5894V31.375H9.41063C9.41063 30.8799 9.41063 28.0431 9.41063 25.7248L9.82788 25.0999Z" fill="#3C50E0"/>
<path d="M28.9375 6.65137V17.3451L19.8125 22.0626V11.3689L28.9375 6.65137Z" fill="#3C50E0"/>
<path d="M31.375 24.4744H9.41063V25.7244H11.9234V28.2372C11.9234 28.5824 12.2032 28.8622 12.5484 28.8622C12.8936 28.8622 13.1734 28.5824 13.1734 28.2372V25.7244H15.0612V27.375C15.0612 27.7201 15.341 28 15.6862 28C16.0314 28 16.3112 27.7201 16.3112 27.375V25.7244H18.1989V28.2372C18.1989 28.5824 18.4788 28.8622 18.8239 28.8622C19.1691 28.8622 19.4489 28.5824 19.4489 28.2372V25.7244H21.3367V27.375C21.3367 27.7201 21.6166 28 21.9617 28C22.3068 28 22.5867 27.7201 22.5867 27.375V25.7244H24.4744V28.2372C24.4744 28.5824 24.7543 28.8622 25.0994 28.8622C25.4446 28.8622 25.7244 28.5824 25.7244 28.2372V25.7244H27.6122V27.375C27.6122 27.7201 27.8921 28 28.2372 28C28.5823 28 28.8622 27.7201 28.8622 27.375V25.7244H30.75V30.75H1.25V1.25H6.27563V3.13775H4.39025C4.04513 3.13775 3.76525 3.41756 3.76525 3.76275C3.76525 4.10794 4.04513 4.38775 4.39025 4.38775H6.27563V6.2755H5.25C4.90488 6.2755 4.625 6.55531 4.625 6.9005C4.625 7.24562 4.90488 7.5255 5.25 7.5255H6.27563V9.41325H4.39025C4.04513 9.41325 3.76525 9.69306 3.76525 10.0382C3.76525 10.3834 4.04513 10.6632 4.39025 10.6632H6.27563V12.551H5.25C4.90488 12.551 4.625 12.8308 4.625 13.176C4.625 13.5211 4.90488 13.801 5.25 13.801H6.27563V15.6888H4.39025C4.04513 15.6888 3.76525 15.9686 3.76525 16.3137C3.76525 16.6589 4.04513 16.9387 4.39025 16.9387H6.27563V18.8265H5.25C4.90488 18.8265 4.625 19.1063 4.625 19.4515C4.625 19.7966 4.90488 20.0765 5.25 20.0765H6.27563V22.5893H7.52563V19.4512V0.625C7.52563 0.279813 7.24575 0 6.90063 0H0.625C0.279813 0 0 0.279813 0 0.625V31.375C0 31.7201 0.279813 32 0.625 32H31.375C31.7201 32 32 31.7201 32 31.375V25.0994C32 24.7542 31.7201 24.4744 31.375 24.4744V24.4744Z" fill="#1D2948"/>
<path d="M10.4004 17.9002C12.023 18.7389 19.5028 22.6064 19.5354 22.6221C19.7045 22.706 19.9084 22.712 20.0896 22.6221C20.1213 22.6068 29.2158 17.9047 29.2284 17.8979C29.433 17.7904 29.5625 17.5775 29.5625 17.345C29.5625 16.1375 29.5625 7.82853 29.5625 6.65122C29.5625 6.40659 29.4172 6.18197 29.1931 6.08084L29.1809 6.07534C29.1809 6.07534 29.1808 6.07534 29.1807 6.07534L20.0681 1.99216C19.9054 1.91928 19.7196 1.91928 19.5569 1.99216L10.4443 6.0754C10.4443 6.0754 10.4442 6.0754 10.4441 6.0754C10.4379 6.0809 10.0625 6.22522 10.0625 6.65128V17.345C10.0625 17.5897 10.2069 17.8034 10.4004 17.9002V17.9002ZM19.1875 21.0358L11.3125 16.9645V7.67797L19.1875 11.7493V21.0358ZM19.8125 3.24741L28.3125 7.05609V16.9645L20.4375 21.0358V11.3688C20.4375 11.126 20.2956 10.9117 20.0996 10.8136L12.1263 6.69147L19.8125 3.24741Z" fill="#1D2948"/>
</svg>
