<svg width="32" height="32" viewBox="0 0 32 32" fill="none" xmlns="http://www.w3.org/2000/svg">
<g clip-path="url(#clip0_323_6241)">
<path d="M29.49 1.88184H11.294C9.91008 1.88184 8.78418 3.00773 8.78418 4.39164V13.5914C9.96761 13.3221 11.2332 13.1759 12.5489 13.1759C18.186 13.1759 22.9088 15.8531 24.1508 19.4504H28.015L31.9998 22.6383V4.39164C31.9998 3.00773 30.8739 1.88184 29.49 1.88184Z" fill="#3E3AFF"/>
<path d="M12.5488 22.5879C13.2419 22.5879 13.8037 22.0261 13.8037 21.333C13.8037 20.64 13.2419 20.0781 12.5488 20.0781C11.8558 20.0781 11.2939 20.64 11.2939 21.333C11.2939 22.0261 11.8558 22.5879 12.5488 22.5879Z" fill="#1D2948"/>
<path d="M17.5684 22.5879C18.2614 22.5879 18.8233 22.0261 18.8233 21.333C18.8233 20.64 18.2614 20.0781 17.5684 20.0781C16.8753 20.0781 16.3135 20.64 16.3135 21.333C16.3135 22.0261 16.8753 22.5879 17.5684 22.5879Z" fill="#1D2948"/>
<path d="M7.52931 22.5879C8.22237 22.5879 8.78421 22.0261 8.78421 21.333C8.78421 20.64 8.22237 20.0781 7.52931 20.0781C6.83625 20.0781 6.27441 20.64 6.27441 21.333C6.27441 22.0261 6.83625 22.5879 7.52931 22.5879Z" fill="#1D2948"/>
<path d="M21.3332 15.0473C16.4616 11.714 8.63823 11.7128 3.76496 15.0473C-1.19811 18.443 -1.16159 23.9009 3.32693 27.3026L0.327097 28.9389C0.0752388 29.0762 -0.0513178 29.3668 0.019584 29.6448C0.0903603 29.9227 0.340713 30.1171 0.62752 30.1171H12.5491C15.8586 30.1171 18.9782 29.2297 21.3332 27.6184C26.3485 24.187 26.3672 18.4916 21.3332 15.0473V15.0473ZM20.6246 26.5827C18.4762 28.0527 15.6083 28.8622 12.5491 28.8622H3.08819L4.82409 27.9153C5.24543 27.6856 5.26262 27.0857 4.85553 26.832C0.305952 23.9965 -0.0498122 19.178 4.47354 16.0829C8.91958 13.0409 16.1789 13.0411 20.6246 16.0829C24.9161 19.0193 24.9195 23.644 20.6246 26.5827V26.5827Z" fill="#1D2948"/>
</g>
<defs>
<clipPath id="clip0_323_6241">
<rect width="32" height="32" fill="white"/>
</clipPath>
</defs>
</svg>
