<svg width="32" height="32" viewBox="0 0 32 32" fill="none" xmlns="http://www.w3.org/2000/svg">
<g clip-path="url(#clip0_323_6198)">
<path d="M24.9458 19.2236V23.0736H20.4675V19.2236H11.5326V23.0736H7.05431V19.2236H1.76318V27.3876C1.76318 28.9403 3.02181 30.1989 4.57443 30.1989H27.4257C28.9784 30.1989 30.237 28.9403 30.237 27.3876V19.2236H24.9458Z" fill="#3C50E0"/>
<path d="M27.7251 7.45016H23.314V4.75109C23.314 3.12428 21.9937 1.80078 20.3708 1.80078H11.6292C10.0063 1.80078 8.686 3.12428 8.686 4.75109V7.45022H4.27488C1.91775 7.45016 0 9.36791 0 11.725V19.2233C0 19.5685 0.279875 19.8483 0.625 19.8483H6.42925V23.0733C6.42925 23.4185 6.70912 23.6983 7.05425 23.6983H11.5326C11.8777 23.6983 12.1576 23.4185 12.1576 23.0733V19.8483H19.8424V23.0733C19.8424 23.4185 20.1222 23.6983 20.4674 23.6983H24.9457C25.2908 23.6983 25.5707 23.4185 25.5707 23.0733V19.8483H31.375C31.7201 19.8483 32 19.5685 32 19.2233V11.725C32 9.36791 30.0822 7.45016 27.7251 7.45016ZM9.93606 4.75109C9.93606 3.81353 10.6956 3.05078 11.6292 3.05078H20.3708C21.3044 3.05078 22.064 3.81353 22.064 4.75109V7.45022H20.3684V5.38047C20.3684 5.03534 20.0885 4.75547 19.7434 4.75547H12.2566C11.9115 4.75547 11.6316 5.03534 11.6316 5.38047V7.45016H9.936V4.75109H9.93606ZM12.8816 7.45016V6.00547H19.1183V7.45016H12.8816ZM10.9076 22.4483H7.67925V17.141H10.9076V22.4483ZM24.3207 22.4483H21.0924V17.141H24.3207V22.4483ZM30.75 18.5983H25.5707V16.516C25.5707 16.1709 25.2909 15.891 24.9457 15.891H20.4674C20.1223 15.891 19.8424 16.1709 19.8424 16.516V18.5983H12.1576V16.516C12.1576 16.1709 11.8777 15.891 11.5326 15.891H7.05425C6.70912 15.891 6.42925 16.1709 6.42925 16.516V18.5983H1.25V11.725C1.25 10.0571 2.607 8.70016 4.27488 8.70016H27.7251C29.393 8.70016 30.7499 10.0572 30.7499 11.725V18.5983H30.75Z" fill="#1D2948"/>
</g>
<defs>
<clipPath id="clip0_323_6198">
<rect width="32" height="32" fill="white"/>
</clipPath>
</defs>
</svg>
