<svg width="70" height="70" viewBox="0 0 70 70" fill="none" xmlns="http://www.w3.org/2000/svg">
<path d="M46.498 24.2402L29.4355 41.4258L22.9824 34.9727L20.5488 37.4062L28.2051 45.0625C28.5469 45.4043 29.0117 45.6777 29.4219 45.6777C29.832 45.6777 30.2832 45.4043 30.625 45.0762L48.9043 26.7012L46.498 24.2402Z" fill="#3C50E0"/>
<path d="M35 6.5625C19.291 6.5625 6.5625 19.291 6.5625 35C6.5625 50.709 19.291 63.4375 35 63.4375C50.709 63.4375 63.4375 50.709 63.4375 35C63.4375 19.291 50.709 6.5625 35 6.5625ZM35 61.0723C20.6309 61.0723 8.92773 49.3828 8.92773 35C8.92773 20.6309 20.6172 8.92773 35 8.92773C49.3691 8.92773 61.0723 20.6172 61.0723 35C61.0723 49.3691 49.3691 61.0723 35 61.0723Z" fill="#3C50E0"/>
</svg>
