<?xml version="1.0" encoding="utf-8"?><svg viewBox="0 0 96 80" xmlns="http://www.w3.org/2000/svg" xmlns:xlink="http://www.w3.org/1999/xlink"><style>:root>svg{display:none}:root>svg:target{display:block}</style><svg fill="inherit" viewBox="0 0 14 14" id="arrow" xmlns="http://www.w3.org/2000/svg"><g clip-path="url(#aaa)"><path d="M10.614 6.616L4.149.15a.539.539 0 00-.762.762l6.084 6.084-6.084 6.084a.539.539 0 00.762.761l6.465-6.464a.539.539 0 000-.762z"/></g><defs><clipPath id="aaa"><path d="M0 0h14v14H0z"/></clipPath></defs></svg><svg fill="none" viewBox="0 0 13 9" id="arrow-filter" xmlns="http://www.w3.org/2000/svg"><path fill-rule="evenodd" clip-rule="evenodd" d="M11.969 6.557a.864.864 0 00-.253-.61L7.573 1.83a.857.857 0 00-1.208 0L2.222 5.948A.859.859 0 003.43 7.165l3.54-3.517 3.539 3.517a.856.856 0 001.46-.608z" fill="#D0D8EB"/></svg><svg fill="none" viewBox="0 0 32 32" id="bank" xmlns="http://www.w3.org/2000/svg"><path d="M4.866 13.731h3.143v11.797H4.866V13.731zm19.124 0h3.144v11.797h-3.143V13.731zm-9.562 0h3.144v11.797h-3.144V13.731zM3.616 25.528h5.643v2.784H3.616v-2.784z" fill="#3C50E0"/><path d="M3.616 10.948h5.643v2.784H3.616v-2.784zm19.124 14.58h5.644v2.784h-5.643v-2.784zm0-14.58h5.644v2.784h-5.643v-2.784zm-9.562 14.58h5.644v2.784h-5.644v-2.784zm0-14.58h5.644v2.784h-5.644v-2.784z" fill="#3C50E0"/><path d="M29.386 27.686H2.614a.625.625 0 00-.625.625v3.064c0 .346.28.625.625.625h26.771c.346 0 .625-.28.625-.625v-3.063a.625.625 0 00-.624-.626zm-.625 3.064H3.239v-1.813H28.76v1.813zM30.01 7.892a.628.628 0 00-.335-.562L16.298.076a.625.625 0 00-.596 0L2.326 7.33a.627.627 0 00-.337.56v3.058c0 .345.28.625.625.625h26.771c.346 0 .625-.28.625-.625V7.893zM16 1.336l10.922 5.923H5.078L16 1.336zm12.76 8.987H3.24V8.51h25.52v1.814z" fill="#1D2948"/><path d="M16 3.242a.625.625 0 00-.625.625v1.15a.625.625 0 101.25 0v-1.15A.625.625 0 0016 3.242z" fill="#1D2948"/></svg><svg fill="none" viewBox="0 0 80 80" id="benefits-1" xmlns="http://www.w3.org/2000/svg"><path d="M48.461 44.492c5.514-5.513 5.514-14.452 0-19.965-5.513-5.513-14.452-5.513-19.965 0s-5.513 14.452 0 19.965c5.513 5.514 14.452 5.514 19.965 0z" fill="#CBF7FF"/><path d="M10.247 7.838h51.766V0H2.41v73.725h7.838V7.838z" fill="#CBF7FF"/><path d="M44.574 29.135l-3.923 1.57a1.56 1.56 0 00-.902.956l-.922 2.766-3.004-2.003a1.563 1.563 0 00-2.167.433l-3.138 4.707a1.562 1.562 0 002.6 1.733l2.271-3.406 3.407 2.27a1.563 1.563 0 002.35-.805l1.339-4.02 3.25-1.299a1.563 1.563 0 00-1.161-2.902z" fill="#1D2948"/><path d="M75.732 60.615l-7.443-7.156V7.838c0-.863-.7-1.563-1.563-1.563h-56.48c-.862 0-1.562.7-1.562 1.563v70.6c0 .862.7 1.562 1.563 1.562h56.48c.862 0 1.562-.7 1.562-1.563v-7.88a6.264 6.264 0 007.464-1.055c2.51-2.507 2.398-6.52-.021-8.887zm-63.923 16.26V9.4h53.355v41.055l-6.824-6.56a22.02 22.02 0 002.104-9.386c0-12.108-9.85-21.958-21.958-21.958-12.107 0-21.957 9.85-21.957 21.958 0 12.108 9.85 21.958 21.957 21.958a21.81 21.81 0 0011.465-3.232l15.213 14.61v9.03H11.809zm26.677-23.533c-10.384 0-18.832-8.448-18.832-18.833 0-10.384 8.448-18.833 18.832-18.833 10.385 0 18.833 8.449 18.833 18.833 0 10.437-8.469 18.833-18.833 18.833zm35.058 13.95a3.14 3.14 0 01-4.445 0L52.534 51.383A22.184 22.184 0 0056.75 46.7l16.805 16.156a3.14 3.14 0 01-.01 4.436z" fill="#1D2948"/><path d="M36.917 61.187H18.091a1.563 1.563 0 000 3.124h18.826a1.563 1.563 0 000-3.125zm0 7.843H18.091a1.563 1.563 0 000 3.125h18.826a1.563 1.563 0 000-3.125zm15.689-7.843h-7.844a1.563 1.563 0 000 3.124h7.844a1.563 1.563 0 000-3.125zm0 7.843h-7.844a1.563 1.563 0 000 3.125h7.844a1.563 1.563 0 000-3.125z" fill="#1D2948"/></svg><svg fill="none" viewBox="0 0 80 80" id="benefits-2" xmlns="http://www.w3.org/2000/svg"><g clip-path="url(#aea)"><path d="M31.372 67.45c12.994 0 23.528-10.534 23.528-23.529 0-12.994-10.534-23.528-23.528-23.528-12.995 0-23.53 10.534-23.53 23.528 0 12.995 10.535 23.53 23.53 23.53z" fill="#C9FFDD"/><path d="M75.152 14.978l3.616-9.041-9.041 3.616C65.407 6.379 60.3 4.707 54.9 4.707a25.06 25.06 0 00-19.183 8.916l-.614.728c19.133 2.39 30.996 22.183 24.12 40.197.424-.165 8.742-1.086 15.104-8.854 7.066-8.628 7.746-21.297.825-30.716z" fill="#C9FFDD"/><path d="M39.674 31.182a1.569 1.569 0 00-2.218 0l-10.52 10.52-3.732-3.73a1.569 1.569 0 00-2.218 0l-4.437 4.436a1.57 1.57 0 000 2.218l9.277 9.278a1.569 1.569 0 002.219 0L44.11 37.837a1.57 1.57 0 000-2.218l-4.437-4.437zM26.935 50.576l-7.058-7.059 2.218-2.218 3.731 3.731a1.569 1.569 0 002.219 0l10.52-10.52 2.218 2.218-13.848 13.848z" fill="#1D2948"/><path d="M31.372 12.55C14.073 12.55 0 26.623 0 43.922c0 6.828 2.139 13.28 6.195 18.719L3.25 70.005c-.51 1.276.76 2.55 2.04 2.039l7.364-2.946c5.438 4.056 11.89 6.195 18.719 6.195 17.298 0 31.371-14.073 31.371-31.371 0-17.299-14.073-31.372-31.371-31.372zm0 59.606c-6.422 0-12.473-2.101-17.5-6.076a1.568 1.568 0 00-.973-.339c-.53 0-.408.083-5.378 2.03l1.919-4.795a1.569 1.569 0 00-.226-1.555c-3.976-5.027-6.077-11.078-6.077-17.5 0-15.568 12.666-28.234 28.235-28.234 15.568 0 28.234 12.666 28.234 28.235 0 15.568-12.666 28.234-28.234 28.234z" fill="#1D2948"/></g><defs><clipPath id="aea"><path fill="#fff" d="M0 0h80v80H0z"/></clipPath></defs></svg><svg fill="none" viewBox="0 0 80 80" id="benefits-3" xmlns="http://www.w3.org/2000/svg"><path d="M22.031 54.844H57.97l-1.137-25h12.23v34.375H50.157l-4.687 3.125h-12.5l-4.688-3.125H10.938V29.844h12.23l-1.137 25z" fill="#F3CFFD"/><path d="M78.438 62.656h-1.563V23.594c0-.863-.7-1.563-1.563-1.563h-17.27l-.075-1.633a1.563 1.563 0 00-1.56-1.492h-5.47V14.22C50.938 8.188 46.032 3.28 40 3.28c-6.03 0-10.938 4.907-10.938 10.938v4.687h-5.468c-.836 0-1.523.657-1.561 1.492l-.074 1.633H4.688c-.863 0-1.563.7-1.563 1.563v39.062H1.562A1.565 1.565 0 000 64.22c0 6.892 5.607 12.5 12.5 12.5h55c6.892 0 12.5-5.608 12.5-12.5 0-.863-.7-1.563-1.563-1.563zM32.188 14.22c0-4.308 3.504-7.813 7.812-7.813s7.813 3.505 7.813 7.813v4.687H32.187V14.22zm22.725 7.812l1.42 31.25H23.667l1.42-31.25h29.827zM6.25 25.156h15.567L20.47 54.773c-.04.89.67 1.633 1.561 1.633h35.94c.864 0 1.563-.7 1.563-1.562l-1.35-29.688H73.75v37.5H50.156c-.308 0-.61.092-.867.263l-4.293 2.862H33.442l-4.294-2.862a1.562 1.562 0 00-.867-.263H6.25v-37.5zM67.5 73.594h-55c-4.637 0-8.499-3.384-9.245-7.813h24.553l4.294 2.863c.257.171.558.262.867.262h12.5c.308 0 .61-.091.867-.262l4.293-2.863h26.116c-.746 4.428-4.608 7.813-9.245 7.813z" fill="#1D2948"/><path d="M35.58 43.37c.4 0 .8-.153 1.105-.458l8.839-8.838a1.563 1.563 0 00-2.21-2.21l-8.839 8.838a1.562 1.562 0 001.105 2.668zm8.838-3.125c-.848 0-1.56.717-1.56 1.563 0 .817.716 1.562 1.56 1.562.853 0 1.563-.71 1.563-1.562 0-.851-.71-1.563-1.563-1.563zm-8.837-5.714c.851 0 1.563-.712 1.563-1.562 0-.852-.711-1.563-1.563-1.563s-1.562.714-1.562 1.563c0 .832.698 1.562 1.562 1.562z" fill="#1D2948" stroke="#FFF1F1" stroke-width=".5"/></svg><svg fill="none" viewBox="0 0 16 16" id="burger" xmlns="http://www.w3.org/2000/svg"><path d="M1 2h14M1 8h10M1 14h10" stroke="#1D2948" stroke-width="2" stroke-linecap="round"/></svg><svg fill="none" viewBox="0 0 11 11" id="close" xmlns="http://www.w3.org/2000/svg"><path d="M6.338 5.464l4.59-4.647c0-.073.072-.145.072-.29 0-.146-.073-.218-.146-.364a.768.768 0 00-.947 0l-4.37 4.43L1.165.09C.874.018.437-.054.146.163.073.31 0 .381 0 .526c0 .146.073.218.146.29l4.59 4.648-4.663 4.72C0 10.255 0 10.4 0 10.473c0 .145.073.217.146.363.218.218.655.218.947 0l4.37-4.502 4.444 4.502c.219.218.656.218.947 0 .146-.073.146-.218.146-.363 0-.146 0-.218-.146-.29l-4.516-4.72z" fill="#1D2948"/></svg><svg fill="none" viewBox="0 0 32 32" id="code" xmlns="http://www.w3.org/2000/svg"><path d="M27.625 7.563H4.375v15h6.938l1.874 1.25h5l1.875-1.25h7.563v-15z" fill="#3C50E0"/><path d="M31.375 21.938h-.625V5.063a.625.625 0 00-.625-.625H1.875a.625.625 0 00-.625.625v16.875H.625a.625.625 0 00-.625.625c0 2.757 2.243 5 5 5h22c2.757 0 5-2.243 5-5a.625.625 0 00-.625-.625zM2.5 5.688h27v16.25h-9.438a.625.625 0 00-.346.105l-1.718 1.145h-4.621l-1.718-1.145a.625.625 0 00-.347-.105H2.5V5.688zM27 26.313H5a3.756 3.756 0 01-3.698-3.125h9.821l1.718 1.145a.625.625 0 00.347.105h5a.625.625 0 00.346-.105l1.718-1.145h10.446A3.756 3.756 0 0127 26.313z" fill="#1D2948"/><path d="M11.442 17.12l-2.058-2.058 2.058-2.058a.625.625 0 00-.884-.883l-2.5 2.5a.625.625 0 000 .883l2.5 2.5a.625.625 0 00.884-.883zm9.116.884c.244.244.64.244.884 0l2.5-2.5a.625.625 0 000-.883l-2.5-2.5a.625.625 0 00-.884.883l2.058 2.059-2.058 2.058a.625.625 0 000 .883zm-6.395-.29l4.42-4.42a.625.625 0 00-.884-.883l-4.42 4.419a.625.625 0 00.884.884z" fill="#fff"/></svg><svg fill="none" viewBox="0 0 18 18" id="configure" xmlns="http://www.w3.org/2000/svg"><path d="M1 14h9M8 4h9" stroke="inherit" stroke-width="2" stroke-linecap="round"/><circle cx="14" cy="14" r="3" stroke="inherit" stroke-width="2"/><circle cx="4" cy="4" r="3" stroke="inherit" stroke-width="2"/></svg><svg fill="none" viewBox="0 0 14 14" id="cross" xmlns="http://www.w3.org/2000/svg"><path d="M8.066 6.954l5.841-5.914c0-.093.093-.185.093-.37s-.093-.277-.185-.462a.977.977 0 00-1.206 0L7.046 5.845 1.483.115C1.113.024.556-.068.185.209.093.393 0 .485 0 .67s.093.277.185.37l5.841 5.914L.093 12.96C0 13.053 0 13.238 0 13.33c0 .185.093.277.185.462.279.277.835.277 1.206 0l5.563-5.73 5.655 5.73c.278.277.835.277 1.206 0C14 13.7 14 13.515 14 13.33s0-.277-.185-.37L8.066 6.954z" fill="#B6B9C9"/></svg><svg fill="none" viewBox="0 0 32 32" id="cubes" xmlns="http://www.w3.org/2000/svg"><path d="M11.955 28.038H4.722a.735.735 0 01-.734-.735v-7.232c0-.406.329-.735.734-.735h7.233c.406 0 .735.329.735.735v7.232a.735.735 0 01-.735.735zm11.733-.264h-.001a4.35 4.35 0 01-4.35-4.35v-.001a4.35 4.35 0 118.702 0 4.35 4.35 0 01-4.351 4.351z" fill="#3C50E0"/><path d="M17.85 12.863a1.22 1.22 0 001.062-.187c.309-.224.494-.572.507-.953l.065-1.923 1.078-1.595c.213-.316.268-.705.15-1.068a1.222 1.222 0 00-.75-.776l-1.809-.657-1.183-1.518a1.222 1.222 0 00-.97-.473c-.382 0-.735.173-.97.473l-1.184 1.518-1.809.656c-.358.13-.632.414-.75.777-.117.363-.063.752.151 1.068L12.515 9.8l.066 1.923c.013.381.198.729.507.953a1.222 1.222 0 001.063.187L16 12.331l1.85.532zm-2.023-1.782l-1.998.574-.07-2.077a.625.625 0 00-.107-.329l-1.164-1.722 1.954-.71c.11-.04.207-.11.28-.203L16 4.975l1.278 1.64a.624.624 0 00.28.202l1.954.71-1.164 1.722a.625.625 0 00-.107.329l-.07 2.077-1.998-.574a.624.624 0 00-.346 0z" fill="#1D2948"/><path d="M29.591 15.375h-5.518c.19-.344.297-.739.297-1.159V2.41A2.411 2.411 0 0021.962 0H10.154a2.411 2.411 0 00-2.409 2.409v11.807c0 .42.108.815.298 1.159H2.409A2.411 2.411 0 000 17.784V29.59A2.411 2.411 0 002.409 32h11.807c.707 0 1.343-.306 1.784-.792a2.403 2.403 0 001.784.792H29.59A2.411 2.411 0 0032 29.591V17.784a2.411 2.411 0 00-2.409-2.409zM8.995 14.216V2.41c0-.64.52-1.159 1.16-1.159h11.807c.639 0 1.159.52 1.159 1.159v11.807a1.16 1.16 0 01-1.16 1.159H10.155a1.16 1.16 0 01-1.159-1.159zm5.221 16.534H2.41a1.16 1.16 0 01-1.159-1.159V17.784c0-.64.52-1.159 1.159-1.159h11.807c.64 0 1.159.52 1.159 1.159V29.59a1.16 1.16 0 01-1.159 1.159zm16.534-1.159a1.16 1.16 0 01-1.159 1.159H17.784a1.16 1.16 0 01-1.159-1.159V17.784c0-.64.52-1.159 1.159-1.159H29.59c.64 0 1.159.52 1.159 1.159V29.59z" fill="#1D2948"/></svg><svg fill="none" viewBox="0 0 24 24" id="date" xmlns="http://www.w3.org/2000/svg"><g opacity=".3"><path d="M2 9c0-1.886 0-2.828.586-3.414C3.172 5 4.114 5 6 5h12c1.886 0 2.828 0 3.414.586C22 6.172 22 7.114 22 9c0 .471 0 .707-.146.854C21.707 10 21.47 10 21 10H3c-.471 0-.707 0-.854-.146C2 9.707 2 9.47 2 9z" fill="#1D2948"/><path fill-rule="evenodd" clip-rule="evenodd" d="M2 18c0 1.886 0 2.828.586 3.414C3.172 22 4.114 22 6 22h12c1.886 0 2.828 0 3.414-.586C22 20.828 22 19.886 22 18v-5c0-.471 0-.707-.146-.854C21.707 12 21.47 12 21 12H3c-.471 0-.707 0-.854.146C2 12.293 2 12.53 2 13v5zm5-3c0-.471 0-.707.146-.854C7.293 14 7.53 14 8 14h2c.471 0 .707 0 .854.146.146.147.146.383.146.854s0 .707-.146.854C10.707 16 10.47 16 10 16H8c-.471 0-.707 0-.854-.146C7 15.707 7 15.47 7 15zm.146 3.146C7 18.293 7 18.53 7 19s0 .707.146.854C7.293 20 7.53 20 8 20h2c.471 0 .707 0 .854-.146C11 19.707 11 19.47 11 19s0-.707-.146-.854C10.707 18 10.47 18 10 18H8c-.471 0-.707 0-.854.146zM13 15c0-.471 0-.707.146-.854C13.293 14 13.53 14 14 14h2c.471 0 .707 0 .854.146.146.147.146.383.146.854s0 .707-.146.854C16.707 16 16.47 16 16 16h-2c-.471 0-.707 0-.854-.146C13 15.707 13 15.47 13 15zm.146 3.146C13 18.293 13 18.53 13 19s0 .707.146.854c.147.146.383.146.854.146h2c.471 0 .707 0 .854-.146C17 19.707 17 19.47 17 19s0-.707-.146-.854C16.707 18 16.47 18 16 18h-2c-.471 0-.707 0-.854.146z" fill="#1D2948"/><path d="M7 3v3m10-3v3" stroke="#1D2948" stroke-width="2" stroke-linecap="round"/></g></svg><svg fill="none" viewBox="0 0 16 16" id="down" xmlns="http://www.w3.org/2000/svg"><path fill-rule="evenodd" clip-rule="evenodd" d="M2.031 6.943c0 .22.085.441.253.61l4.143 4.117a.857.857 0 001.208 0l4.143-4.118a.859.859 0 00-1.208-1.217L7.03 9.852 3.492 6.335a.856.856 0 00-1.46.608z" fill="#1D2948"/></svg><svg fill="none" viewBox="0 0 42 42" id="fb" xmlns="http://www.w3.org/2000/svg"><path d="M27.924 20.963h-5.09v19.128H15.12V20.963h-3.668v-6.722h3.668v-4.35c0-3.11 1.441-7.982 7.782-7.982l5.713.025v6.525H24.47c-.68 0-1.636.348-1.636 1.832v3.956h5.764l-.674 6.716z" fill="url(#aoa)"/><defs><linearGradient id="aoa" x1="14.552" y1="5.621" x2="35.529" y2="17.836" gradientUnits="userSpaceOnUse"><stop stop-color="#15A4FA"/><stop offset="1" stop-color="#0572E6"/></linearGradient></defs></svg><svg fill="none" viewBox="0 0 32 32" id="graduation" xmlns="http://www.w3.org/2000/svg"><path d="M24.125 13.767a.625.625 0 00-.625.625v5.742a15.647 15.647 0 01-7.5 1.918c-2.62 0-5.204-.662-7.5-1.918v-5.742a.625.625 0 00-1.25 0V20.5c0 .223.12.43.313.54A16.897 16.897 0 0016 23.303a16.9 16.9 0 008.438-2.261.625.625 0 00.312-.541v-6.108a.625.625 0 00-.625-.625zM29 18.4v-5.672a.625.625 0 00-1.25 0V18.4a2.035 2.035 0 00-1.406 1.933v4.844a.625.625 0 001.25 0v-1.875h1.562v1.875a.625.625 0 001.25 0v-4.844c0-.902-.59-1.668-1.406-1.933zm.156 3.652h-1.562v-1.719a.782.782 0 011.562 0v1.719z" fill="#1D2948"/><path fill-rule="evenodd" clip-rule="evenodd" d="M0 12.052l16-5.854 16 5.854-16 5.854-16-5.854z" fill="#3C50E0"/></svg><svg fill="none" viewBox="0 0 44 42" id="insta" xmlns="http://www.w3.org/2000/svg"><path d="M35.129 3.818H10.782c-2.78 0-5.044 2.259-5.044 5.034v24.296c0 2.776 2.263 5.034 5.044 5.034H35.13c2.781 0 5.044-2.258 5.044-5.034V8.852c0-2.775-2.263-5.034-5.044-5.034zM23.023 29.994c-5.007 0-9.08-4.065-9.08-9.06 0-4.997 4.073-9.062 9.08-9.062 5.006 0 9.08 4.065 9.08 9.061 0 4.996-4.074 9.06-9.08 9.06zM33.11 13.886a3.027 3.027 0 01-3.026-3.02 3.027 3.027 0 016.053 0 3.027 3.027 0 01-3.027 3.02z"/><path d="M23.135 15.318c-3.164 0-5.74 2.57-5.74 5.727 0 3.158 2.576 5.727 5.74 5.727s5.74-2.57 5.74-5.727c0-3.158-2.576-5.727-5.74-5.727z" fill="url(#paint1_linear_45_6382)"/></svg><svg fill="inherit" viewBox="0 0 18 18" id="like" xmlns="http://www.w3.org/2000/svg"><path d="M15.718 9.177a1.31 1.31 0 01-.75 2.25 1.31 1.31 0 01-.75 2.25 1.31 1.31 0 01-.906 2.261H9.281a6.195 6.195 0 01-3.07-.816L6 15.002v-7.84a7.321 7.321 0 001.492-2.375l.96-2.499c.139-.359.49-.6.876-.6h.079c.54 0 1.035.25 1.357.684.321.436.415.982.255 1.5l-.753 2.448a.187.187 0 00.18.243h5.117c.723 0 1.312.588 1.312 1.312 0 .67-.506 1.225-1.157 1.302zM5.25 7.125v8.25c0 .517-.42.938-.938.938h-2.25a.939.939 0 01-.937-.938v-8.25c0-.517.42-.938.938-.938h2.25a.94.94 0 01.937.938zM3.937 14.25a.75.75 0 10-1.501.002.75.75 0 001.502-.002z"/></svg><svg fill="none" viewBox="0 0 32 32" id="megaphone" xmlns="http://www.w3.org/2000/svg"><path d="M28.489 24.965l-2.17.776.063-2.316-1.404-1.836 2.209-.655 1.302-1.91 1.302 1.91L32 21.59l-1.404 1.837.063 2.315-2.17-.776zm-9.263-1.818l-11.41-4.934v-8.86l11.41-4.935v18.73z" fill="#3C50E0"/><path d="M7.817 8.728H3.613a.625.625 0 00-.625.625v1.035H.625a.625.625 0 00-.625.625v5.54c0 .345.28.624.625.624h2.363v1.036c0 .345.28.625.625.625h.256v10.364c0 .345.28.625.625.625h3.323c.345 0 .625-.28.625-.625V9.352a.625.625 0 00-.625-.624zm-3.58 1.25h2.955v7.61H4.238v-7.61zm-2.987 5.95v-4.29h1.738v4.29H1.25zm5.942 12.65H5.119v-9.74h2.073v9.74zm15.68-17.679v-8.1a.625.625 0 00-.625-.625h-3.02a.625.625 0 00-.626.625v21.967c0 .345.28.625.625.625h3.02c.346 0 .626-.28.626-.625v-8.1a2.886 2.886 0 002.73-2.879v-.01c0-1.538-1.211-2.8-2.73-2.878zm-1.25 13.242h-1.77V3.424h1.77V24.14zm2.73-10.353c0 .849-.65 1.548-1.48 1.625v-3.261c.83.076 1.48.776 1.48 1.625v.01z" fill="#1D2948"/></svg><svg fill="none" stroke="inherit" viewBox="0 0 24 24" id="menu" xmlns="http://www.w3.org/2000/svg"><path d="M4 7h16M4 17h12" stroke-width="2" stroke-linecap="round"/></svg><svg fill="none" viewBox="0 0 64 64" id="message" xmlns="http://www.w3.org/2000/svg"><g clip-path="url(#aua)"><path d="M64 9.31v33.686c0 1.077-1.25 1.63-1.978.844l-5.934-7.244a4.669 4.669 0 00-3.608-1.716h-7.098V23.273a9.3 9.3 0 00-9.309-9.31H22.109V9.31A9.3 9.3 0 0131.42 0h23.27A9.3 9.3 0 0164 9.31z" fill="#3C50E0"/><path d="M1.164 48.873v-2.327m0-4.655V23.273a9.3 9.3 0 019.31-9.31h25.6a9.3 9.3 0 019.308 9.31v20.945a9.3 9.3 0 01-9.309 9.31H12.684a4.67 4.67 0 00-3.607 1.716l-5.935 7.243c-.727.757-1.978.233-1.978-.843v-8.116m9.309-26.764h25.6m-25.6 6.981h25.6m-25.6 6.982h25.6" stroke="#1D2948" stroke-width="3" stroke-miterlimit="10" stroke-linecap="round" stroke-linejoin="round"/></g><defs><clipPath id="aua"><path fill="#fff" d="M0 0h64v64H0z"/></clipPath></defs></svg><svg fill="inherit" viewBox="0 0 6 11" id="next" xmlns="http://www.w3.org/2000/svg"><path fill-rule="evenodd" clip-rule="evenodd" d="M1.255 10.048a.79.79 0 00.562-.234L5.618 5.99a.79.79 0 000-1.115l-3.8-3.824A.793.793 0 00.693 2.166L3.94 5.433.694 8.699a.79.79 0 00.561 1.349z"/></svg><svg fill="inherit" viewBox="0 0 17 17" id="offer" xmlns="http://www.w3.org/2000/svg"><path d="M3.54 16.232a.848.848 0 01-.6-.245.87.87 0 01-.24-.634.83.83 0 01.2-.573L13.74.6c.106-.108.213-.197.32-.265a.758.758 0 01.38-.103c.24 0 .44.09.6.266a.87.87 0 01.24.635.86.86 0 01-.16.511L4.2 15.946a.893.893 0 01-.66.286zm1.38-7.938c-.72 0-1.38-.184-1.98-.553A4.304 4.304 0 011.52 6.29a3.931 3.931 0 01-.54-2.026c0-.723.18-1.384.54-1.985A4.246 4.246 0 012.94.805C3.54.423 4.2.232 4.92.232s1.373.191 1.96.573c.6.369 1.08.86 1.44 1.473.36.6.54 1.269.54 2.006 0 .723-.18 1.39-.54 2.005-.36.6-.84 1.084-1.44 1.452a3.611 3.611 0 01-1.96.553zm.02-1.719c.4 0 .766-.102 1.1-.307.346-.218.62-.498.82-.839.213-.354.32-.736.32-1.145 0-.437-.107-.826-.32-1.167a2.226 2.226 0 00-.82-.839 2.064 2.064 0 00-1.12-.327c-.4 0-.774.11-1.12.327a2.382 2.382 0 00-.84.84c-.2.34-.3.73-.3 1.166 0 .409.1.79.3 1.145.213.341.486.621.82.84a2.24 2.24 0 001.16.306zm8.1 9.657a3.82 3.82 0 01-1.98-.531 4.304 4.304 0 01-1.42-1.453 4.048 4.048 0 01-.52-2.026c0-.736.173-1.405.52-2.005a4.071 4.071 0 011.42-1.453 3.647 3.647 0 011.98-.552c.72 0 1.373.177 1.96.532.6.355 1.08.839 1.44 1.453.36.6.54 1.275.54 2.025 0 .737-.18 1.412-.54 2.026A4.25 4.25 0 0115 15.701a3.716 3.716 0 01-1.96.531zm0-1.718c.413 0 .786-.102 1.12-.307a2.44 2.44 0 00.82-.839 2.19 2.19 0 00.32-1.146 2.12 2.12 0 00-.32-1.146 2.226 2.226 0 00-.82-.838 2.166 2.166 0 00-1.12-.307c-.4 0-.774.102-1.12.307-.347.204-.62.484-.82.838-.2.341-.3.723-.3 1.146 0 .423.1.812.3 1.166.2.341.473.614.82.819.346.204.72.307 1.12.307z"/></svg><svg fill="inherit" viewBox="0 0 17 16" id="open" xmlns="http://www.w3.org/2000/svg"><path fill-rule="evenodd" clip-rule="evenodd" d="M16.5 11.333a3.417 3.417 0 01-3.417 3.417h-9A3.75 3.75 0 01.333 11V5a3.75 3.75 0 013.75-3.75h2.334a.75.75 0 010 1.5H4.083A2.25 2.25 0 001.833 5v6a2.25 2.25 0 002.25 2.25h9A1.917 1.917 0 0015 11.333h1.5zM9.672 1.43a.75.75 0 01.749-.75h4.85a.748.748 0 01.749.75v4.86a.75.75 0 11-1.499 0V2.182h-4.1a.75.75 0 01-.75-.75z"/><path fill-rule="evenodd" clip-rule="evenodd" d="M15.149 1.593a.752.752 0 010 1.061L11.422 6.39a.748.748 0 01-1.06 0 .752.752 0 010-1.062l3.727-3.735a.748.748 0 011.06 0z"/></svg><svg fill="inherit" viewBox="0 0 16 17" id="pencil" xmlns="http://www.w3.org/2000/svg"><g clip-path="url(#aya)"><path d="M15.372 5.75c.403-.403.628-.94.628-1.513 0-.571-.222-1.109-.628-1.512l-1.594-1.594A2.118 2.118 0 0012.263.5c-.572 0-1.11.222-1.513.628l-9.94 9.94a2.761 2.761 0 00-.807 2.107L0 15.719a.783.783 0 00.781.781l2.544-.003a2.76 2.76 0 002.106-.806.78.78 0 000-1.107.78.78 0 00-1.106 0 1.209 1.209 0 01-.928.35l-.05-.003-1.784.007.003-1.785c0-.016 0-.034-.003-.05a1.209 1.209 0 01.35-.928l8.284-8.284 2.413 2.412-6.225 6.225a.78.78 0 000 1.106.78.78 0 001.106 0l7.881-7.884zm-4.069-2.966l.553-.553a.577.577 0 01.819 0l1.594 1.594a.58.58 0 010 .819l-.553.553-2.413-2.413zm3.916 12.154H8.172a.782.782 0 000 1.562h7.047a.782.782 0 000-1.563z"/></g><defs><clipPath id="aya"><path fill="#fff" transform="translate(0 .5)" d="M0 0h16v16H0z"/></clipPath></defs></svg><svg fill="none" viewBox="0 0 32 32" id="pie-chart" xmlns="http://www.w3.org/2000/svg"><g clip-path="url(#aza)"><path d="M30.735 14.104v-.017C30.735 6.648 24.711.618 17.28.618v13.486h13.456z" fill="#3C50E0"/><path d="M31.817 16.48a.625.625 0 00-.442-.184H17.919a.625.625 0 00-.442 1.067l9.506 9.515a.625.625 0 00.884 0A14.008 14.008 0 0032 16.923a.625.625 0 00-.183-.443zm-4.401 9.062l-.696-.696 1.077-1.076a.625.625 0 10-.884-.884l-1.076 1.076-1.174-1.175 2.846-2.847a.625.625 0 10-.883-.884l-2.847 2.846-1.078-1.079.947-.947a.625.625 0 00-.884-.884l-.947.947-2.39-2.393h11.307a12.746 12.746 0 01-3.319 7.996z" fill="#1D2948"/><path d="M14.706 17.046V3.82a.625.625 0 00-.625-.625 13.982 13.982 0 00-9.957 4.129A14.009 14.009 0 000 17.288a14.01 14.01 0 004.124 9.966 13.982 13.982 0 009.957 4.129 13.98 13.98 0 009.948-4.12.625.625 0 000-.884l-9.323-9.333zm-.625 13.087c-7.075 0-12.831-5.762-12.831-12.845 0-6.872 5.42-12.501 12.206-12.829v12.503l-6.59 4.19a.625.625 0 10.67 1.054l6.457-4.105 8.7 8.709a12.731 12.731 0 01-8.612 3.323z" fill="#1D2948"/></g><defs><clipPath id="aza"><path fill="#fff" d="M0 0h32v32H0z"/></clipPath></defs></svg><svg fill="inherit" viewBox="0 0 23 22" id="reload" xmlns="http://www.w3.org/2000/svg"><path d="M19.468 10.24A8.25 8.25 0 119.365 4.408l.502-.134-1.712-.99a1.032 1.032 0 111.031-1.787l4.166 2.406a.688.688 0 01.251.938l-2.406 4.17A1.031 1.031 0 119.413 7.98l.987-1.716-.34.093c-3.294.88-5.394 4.225-4.559 7.532a6.187 6.187 0 1010.907-5.284 1.078 1.078 0 01-.23-.66 1.027 1.027 0 011.832-.636 8.157 8.157 0 011.458 2.933z"/></svg><svg fill="none" viewBox="0 0 24 24" id="review" xmlns="http://www.w3.org/2000/svg"><path fill-rule="evenodd" clip-rule="evenodd" d="M12 3a9 9 0 000 18h4.5c1.398 0 2.097 0 2.648-.228a3 3 0 001.624-1.624C21 18.597 21 17.898 21 16.5V12a9 9 0 00-9-9zm-4 8a1 1 0 011-1h6a1 1 0 110 2H9a1 1 0 01-1-1zm3 4a1 1 0 011-1h3a1 1 0 110 2h-3a1 1 0 01-1-1z" fill="#1D2948" opacity=".3"/></svg><svg fill="none" viewBox="0 0 32 32" id="ruler" xmlns="http://www.w3.org/2000/svg"><path d="M9.828 25.1l-.417-.625v-1.886H7.526l-.625-.417-.625.417H.625v8.786h8.786v-5.65l.417-.625zm19.11-18.449v10.694l-9.125 4.718V11.369l9.125-4.718z" fill="#3C50E0"/><path d="M31.375 24.474H9.411v1.25h2.512v2.513a.625.625 0 101.25 0v-2.513h1.888v1.651a.625.625 0 001.25 0v-1.65H18.2v2.512a.625.625 0 001.25 0v-2.513h1.888v1.651a.625.625 0 001.25 0v-1.65h1.887v2.512a.625.625 0 001.25 0v-2.513h1.888v1.651a.625.625 0 001.25 0v-1.65h1.888v5.025H1.25V1.25h5.026v1.888H4.39a.625.625 0 000 1.25h1.886v1.888H5.25a.625.625 0 000 1.25h1.026v1.887H4.39a.625.625 0 000 1.25h1.886v1.888H5.25a.625.625 0 000 1.25h1.026v1.888H4.39a.625.625 0 000 1.25h1.886v1.887H5.25a.625.625 0 000 1.25h1.026v2.513h1.25V.625A.625.625 0 006.9 0H.625A.625.625 0 000 .625v30.75c0 .345.28.625.625.625h30.75c.345 0 .625-.28.625-.625v-6.276a.625.625 0 00-.625-.625z" fill="#1D2948"/><path d="M10.4 17.9l9.135 4.722c.17.084.373.09.555 0l9.138-4.724a.625.625 0 00.334-.553V6.651a.628.628 0 00-.369-.57l-.012-.006-9.113-4.083a.625.625 0 00-.511 0l-9.113 4.083c-.006.006-.382.15-.382.576v10.694c0 .245.145.458.338.555zm8.787 3.136l-7.875-4.072V7.679l7.876 4.071v9.287zm.625-17.789l8.5 3.81v9.907l-7.875 4.072v-9.667a.625.625 0 00-.337-.555L12.126 6.69l7.687-3.444z" fill="#1D2948"/></svg><svg fill="none" viewBox="0 0 24 24" id="search" xmlns="http://www.w3.org/2000/svg"><path d="M11 20a9 9 0 100-18 9 9 0 000 18zm11 2l-4-4" stroke="inherit" stroke-width="2" stroke-linecap="round" stroke-linejoin="round"/></svg><svg fill="none" viewBox="0 0 32 32" id="speech-bubble" xmlns="http://www.w3.org/2000/svg"><g clip-path="url(#bea)"><path d="M29.49 1.882H11.294a2.513 2.513 0 00-2.51 2.51v9.2a16.992 16.992 0 013.765-.416c5.637 0 10.36 2.677 11.602 6.274h3.864L32 22.638V4.392a2.513 2.513 0 00-2.51-2.51z" fill="#3E3AFF"/><path d="M12.549 22.588a1.255 1.255 0 100-2.51 1.255 1.255 0 000 2.51zm5.019 0a1.255 1.255 0 100-2.51 1.255 1.255 0 000 2.51zm-10.038 0a1.255 1.255 0 100-2.51 1.255 1.255 0 000 2.51z" fill="#1D2948"/><path d="M21.333 15.047c-4.871-3.333-12.695-3.334-17.568 0-4.963 3.396-4.927 8.854-.438 12.256l-3 1.636a.627.627 0 00.3 1.178H12.55c3.31 0 6.43-.887 8.784-2.499 5.016-3.431 5.034-9.126 0-12.57zm-.708 11.536c-2.149 1.47-5.017 2.28-8.076 2.28H3.09l1.735-.948a.628.628 0 00.032-1.083c-4.55-2.835-4.906-7.654-.382-10.75 4.446-3.041 11.705-3.04 16.15 0 4.292 2.937 4.296 7.562 0 10.5z" fill="#1D2948"/></g><defs><clipPath id="bea"><path fill="#fff" d="M0 0h32v32H0z"/></clipPath></defs></svg><svg fill="none" viewBox="0 0 96 16" id="stars0" xmlns="http://www.w3.org/2000/svg"><g clip-path="url(#bfa)"><path d="M12.9 15.4L8 12.8l-4.9 2.6L4 10 0 6.1l5.5-.8 2.4-5 2.4 5 5.5.8L12 10l.9 5.4z" fill="#DCDFE9"/></g><g clip-path="url(#bfb)"><path d="M32.9 15.4L28 12.8l-4.9 2.6.9-5.4-4-3.9 5.5-.8 2.4-5 2.4 5 5.5.8L32 10l.9 5.4z" fill="#DCDFE9"/></g><g clip-path="url(#bfc)"><path d="M52.9 15.4L48 12.8l-4.9 2.6.9-5.4-4-3.9 5.5-.8 2.4-5 2.4 5 5.5.8L52 10l.9 5.4z" fill="#DCDFE9"/></g><g clip-path="url(#bfd)"><path d="M72.9 15.4L68 12.8l-4.9 2.6.9-5.4-4-3.9 5.5-.8 2.4-5 2.4 5 5.5.8L72 10l.9 5.4z" fill="#DCDFE9"/></g><g clip-path="url(#bfe)"><path d="M92.9 15.4L88 12.8l-4.9 2.6.9-5.4-4-3.9 5.5-.8 2.4-5 2.4 5 5.5.8L92 10l.9 5.4z" fill="#DCDFE9"/></g><defs><clipPath id="bfa"><path fill="#fff" d="M0 0h16v16H0z"/></clipPath><clipPath id="bfb"><path fill="#fff" transform="translate(20)" d="M0 0h16v16H0z"/></clipPath><clipPath id="bfc"><path fill="#fff" transform="translate(40)" d="M0 0h16v16H0z"/></clipPath><clipPath id="bfd"><path fill="#fff" transform="translate(60)" d="M0 0h16v16H0z"/></clipPath><clipPath id="bfe"><path fill="#fff" transform="translate(80)" d="M0 0h16v16H0z"/></clipPath></defs></svg><svg fill="none" viewBox="0 0 96 16" id="stars05" xmlns="http://www.w3.org/2000/svg"><g clip-path="url(#bga)"><path d="M12.9 15.4L8 12.8l-4.9 2.6L4 10 0 6.1l5.5-.8 2.4-5 2.4 5 5.5.8L12 10l.9 5.4z" fill="#DCDFE9"/><path d="M5.6 5.4l-5.5.8L4 10l-.9 5.5L8 12.9V.4l-2.4 5z" fill="#FFC64A"/></g><g clip-path="url(#bgb)"><path d="M32.9 15.4L28 12.8l-4.9 2.6.9-5.4-4-3.9 5.5-.8 2.4-5 2.4 5 5.5.8L32 10l.9 5.4z" fill="#DCDFE9"/></g><g clip-path="url(#bgc)"><path d="M52.9 15.4L48 12.8l-4.9 2.6.9-5.4-4-3.9 5.5-.8 2.4-5 2.4 5 5.5.8L52 10l.9 5.4z" fill="#DCDFE9"/></g><g clip-path="url(#bgd)"><path d="M72.9 15.4L68 12.8l-4.9 2.6.9-5.4-4-3.9 5.5-.8 2.4-5 2.4 5 5.5.8L72 10l.9 5.4z" fill="#DCDFE9"/></g><g clip-path="url(#bge)"><path d="M92.9 15.4L88 12.8l-4.9 2.6.9-5.4-4-3.9 5.5-.8 2.4-5 2.4 5 5.5.8L92 10l.9 5.4z" fill="#DCDFE9"/></g><defs><clipPath id="bga"><path fill="#fff" d="M0 0h16v16H0z"/></clipPath><clipPath id="bgb"><path fill="#fff" transform="translate(20)" d="M0 0h16v16H0z"/></clipPath><clipPath id="bgc"><path fill="#fff" transform="translate(40)" d="M0 0h16v16H0z"/></clipPath><clipPath id="bgd"><path fill="#fff" transform="translate(60)" d="M0 0h16v16H0z"/></clipPath><clipPath id="bge"><path fill="#fff" transform="translate(80)" d="M0 0h16v16H0z"/></clipPath></defs></svg><svg fill="none" viewBox="0 0 96 16" id="stars1" xmlns="http://www.w3.org/2000/svg"><g clip-path="url(#bha)"><path d="M12.9 15.4L8 12.8l-4.9 2.6L4 10 0 6.1l5.5-.8 2.4-5 2.4 5 5.5.8L12 10l.9 5.4z" fill="#FFC64A"/></g><g clip-path="url(#bhb)"><path d="M32.9 15.4L28 12.8l-4.9 2.6.9-5.4-4-3.9 5.5-.8 2.4-5 2.4 5 5.5.8L32 10l.9 5.4z" fill="#DCDFE9"/></g><g clip-path="url(#bhc)"><path d="M52.9 15.4L48 12.8l-4.9 2.6.9-5.4-4-3.9 5.5-.8 2.4-5 2.4 5 5.5.8L52 10l.9 5.4z" fill="#DCDFE9"/></g><g clip-path="url(#bhd)"><path d="M72.9 15.4L68 12.8l-4.9 2.6.9-5.4-4-3.9 5.5-.8 2.4-5 2.4 5 5.5.8L72 10l.9 5.4z" fill="#DCDFE9"/></g><g clip-path="url(#bhe)"><path d="M92.9 15.4L88 12.8l-4.9 2.6.9-5.4-4-3.9 5.5-.8 2.4-5 2.4 5 5.5.8L92 10l.9 5.4z" fill="#DCDFE9"/></g><defs><clipPath id="bha"><path fill="#fff" d="M0 0h16v16H0z"/></clipPath><clipPath id="bhb"><path fill="#fff" transform="translate(20)" d="M0 0h16v16H0z"/></clipPath><clipPath id="bhc"><path fill="#fff" transform="translate(40)" d="M0 0h16v16H0z"/></clipPath><clipPath id="bhd"><path fill="#fff" transform="translate(60)" d="M0 0h16v16H0z"/></clipPath><clipPath id="bhe"><path fill="#fff" transform="translate(80)" d="M0 0h16v16H0z"/></clipPath></defs></svg><svg fill="none" viewBox="0 0 96 16" id="stars15" xmlns="http://www.w3.org/2000/svg"><g clip-path="url(#bia)"><path d="M12.9 15.4L8 12.8l-4.9 2.6L4 10 0 6.1l5.5-.8 2.4-5 2.4 5 5.5.8L12 10l.9 5.4z" fill="#FFC64A"/></g><g clip-path="url(#bib)"><path d="M32.9 15.4L28 12.8l-4.9 2.6.9-5.4-4-3.9 5.5-.8 2.4-5 2.4 5 5.5.8L32 10l.9 5.4z" fill="#DCDFE9"/><path d="M25.6 5.4l-5.5.8L24 10l-.9 5.5 4.9-2.6V.4l-2.4 5z" fill="#FFC64A"/></g><g clip-path="url(#bic)"><path d="M52.9 15.4L48 12.8l-4.9 2.6.9-5.4-4-3.9 5.5-.8 2.4-5 2.4 5 5.5.8L52 10l.9 5.4z" fill="#DCDFE9"/></g><g clip-path="url(#bid)"><path d="M72.9 15.4L68 12.8l-4.9 2.6.9-5.4-4-3.9 5.5-.8 2.4-5 2.4 5 5.5.8L72 10l.9 5.4z" fill="#DCDFE9"/></g><g clip-path="url(#bie)"><path d="M92.9 15.4L88 12.8l-4.9 2.6.9-5.4-4-3.9 5.5-.8 2.4-5 2.4 5 5.5.8L92 10l.9 5.4z" fill="#DCDFE9"/></g><defs><clipPath id="bia"><path fill="#fff" d="M0 0h16v16H0z"/></clipPath><clipPath id="bib"><path fill="#fff" transform="translate(20)" d="M0 0h16v16H0z"/></clipPath><clipPath id="bic"><path fill="#fff" transform="translate(40)" d="M0 0h16v16H0z"/></clipPath><clipPath id="bid"><path fill="#fff" transform="translate(60)" d="M0 0h16v16H0z"/></clipPath><clipPath id="bie"><path fill="#fff" transform="translate(80)" d="M0 0h16v16H0z"/></clipPath></defs></svg><svg fill="none" viewBox="0 0 96 16" id="stars2" xmlns="http://www.w3.org/2000/svg"><g clip-path="url(#bja)"><path d="M12.9 15.4L8 12.8l-4.9 2.6L4 10 0 6.1l5.5-.8 2.4-5 2.4 5 5.5.8L12 10l.9 5.4z" fill="#FFC64A"/></g><g clip-path="url(#bjb)"><path d="M32.9 15.4L28 12.8l-4.9 2.6.9-5.4-4-3.9 5.5-.8 2.4-5 2.4 5 5.5.8L32 10l.9 5.4z" fill="#FFC64A"/></g><g clip-path="url(#bjc)"><path d="M52.9 15.4L48 12.8l-4.9 2.6.9-5.4-4-3.9 5.5-.8 2.4-5 2.4 5 5.5.8L52 10l.9 5.4z" fill="#DCDFE9"/></g><g clip-path="url(#bjd)"><path d="M72.9 15.4L68 12.8l-4.9 2.6.9-5.4-4-3.9 5.5-.8 2.4-5 2.4 5 5.5.8L72 10l.9 5.4z" fill="#DCDFE9"/></g><g clip-path="url(#bje)"><path d="M92.9 15.4L88 12.8l-4.9 2.6.9-5.4-4-3.9 5.5-.8 2.4-5 2.4 5 5.5.8L92 10l.9 5.4z" fill="#DCDFE9"/></g><defs><clipPath id="bja"><path fill="#fff" d="M0 0h16v16H0z"/></clipPath><clipPath id="bjb"><path fill="#fff" transform="translate(20)" d="M0 0h16v16H0z"/></clipPath><clipPath id="bjc"><path fill="#fff" transform="translate(40)" d="M0 0h16v16H0z"/></clipPath><clipPath id="bjd"><path fill="#fff" transform="translate(60)" d="M0 0h16v16H0z"/></clipPath><clipPath id="bje"><path fill="#fff" transform="translate(80)" d="M0 0h16v16H0z"/></clipPath></defs></svg><svg fill="none" viewBox="0 0 96 16" id="stars25" xmlns="http://www.w3.org/2000/svg"><g clip-path="url(#bka)"><path d="M12.9 15.4L8 12.8l-4.9 2.6L4 10 0 6.1l5.5-.8 2.4-5 2.4 5 5.5.8L12 10l.9 5.4z" fill="#FFC64A"/></g><g clip-path="url(#bkb)"><path d="M32.9 15.4L28 12.8l-4.9 2.6.9-5.4-4-3.9 5.5-.8 2.4-5 2.4 5 5.5.8L32 10l.9 5.4z" fill="#FFC64A"/></g><g clip-path="url(#bkc)"><path d="M52.9 15.4L48 12.8l-4.9 2.6.9-5.4-4-3.9 5.5-.8 2.4-5 2.4 5 5.5.8L52 10l.9 5.4z" fill="#DCDFE9"/><path d="M45.6 5.4l-5.5.8L44 10l-.9 5.5 4.9-2.6V.4l-2.4 5z" fill="#FFC64A"/></g><g clip-path="url(#bkd)"><path d="M72.9 15.4L68 12.8l-4.9 2.6.9-5.4-4-3.9 5.5-.8 2.4-5 2.4 5 5.5.8L72 10l.9 5.4z" fill="#DCDFE9"/></g><g clip-path="url(#bke)"><path d="M92.9 15.4L88 12.8l-4.9 2.6.9-5.4-4-3.9 5.5-.8 2.4-5 2.4 5 5.5.8L92 10l.9 5.4z" fill="#DCDFE9"/></g><defs><clipPath id="bka"><path fill="#fff" d="M0 0h16v16H0z"/></clipPath><clipPath id="bkb"><path fill="#fff" transform="translate(20)" d="M0 0h16v16H0z"/></clipPath><clipPath id="bkc"><path fill="#fff" transform="translate(40)" d="M0 0h16v16H0z"/></clipPath><clipPath id="bkd"><path fill="#fff" transform="translate(60)" d="M0 0h16v16H0z"/></clipPath><clipPath id="bke"><path fill="#fff" transform="translate(80)" d="M0 0h16v16H0z"/></clipPath></defs></svg><svg fill="none" viewBox="0 0 96 16" id="stars3" xmlns="http://www.w3.org/2000/svg"><g clip-path="url(#bla)"><path d="M12.9 15.4L8 12.8l-4.9 2.6L4 10 0 6.1l5.5-.8 2.4-5 2.4 5 5.5.8L12 10l.9 5.4z" fill="#FFC64A"/></g><g clip-path="url(#blb)"><path d="M32.9 15.4L28 12.8l-4.9 2.6.9-5.4-4-3.9 5.5-.8 2.4-5 2.4 5 5.5.8L32 10l.9 5.4z" fill="#FFC64A"/></g><g clip-path="url(#blc)"><path d="M52.9 15.4L48 12.8l-4.9 2.6.9-5.4-4-3.9 5.5-.8 2.4-5 2.4 5 5.5.8L52 10l.9 5.4z" fill="#FFC64A"/></g><g clip-path="url(#bld)"><path d="M72.9 15.4L68 12.8l-4.9 2.6.9-5.4-4-3.9 5.5-.8 2.4-5 2.4 5 5.5.8L72 10l.9 5.4z" fill="#DCDFE9"/></g><g clip-path="url(#ble)"><path d="M92.9 15.4L88 12.8l-4.9 2.6.9-5.4-4-3.9 5.5-.8 2.4-5 2.4 5 5.5.8L92 10l.9 5.4z" fill="#DCDFE9"/></g><defs><clipPath id="bla"><path fill="#fff" d="M0 0h16v16H0z"/></clipPath><clipPath id="blb"><path fill="#fff" transform="translate(20)" d="M0 0h16v16H0z"/></clipPath><clipPath id="blc"><path fill="#fff" transform="translate(40)" d="M0 0h16v16H0z"/></clipPath><clipPath id="bld"><path fill="#fff" transform="translate(60)" d="M0 0h16v16H0z"/></clipPath><clipPath id="ble"><path fill="#fff" transform="translate(80)" d="M0 0h16v16H0z"/></clipPath></defs></svg><svg fill="none" viewBox="0 0 96 16" id="stars35" xmlns="http://www.w3.org/2000/svg"><g clip-path="url(#bma)"><path d="M12.9 15.4L8 12.8l-4.9 2.6L4 10 0 6.1l5.5-.8 2.4-5 2.4 5 5.5.8L12 10l.9 5.4z" fill="#FFC64A"/></g><g clip-path="url(#bmb)"><path d="M32.9 15.4L28 12.8l-4.9 2.6.9-5.4-4-3.9 5.5-.8 2.4-5 2.4 5 5.5.8L32 10l.9 5.4z" fill="#FFC64A"/></g><g clip-path="url(#bmc)"><path d="M52.9 15.4L48 12.8l-4.9 2.6.9-5.4-4-3.9 5.5-.8 2.4-5 2.4 5 5.5.8L52 10l.9 5.4z" fill="#FFC64A"/></g><g clip-path="url(#bmd)"><path d="M72.9 15.4L68 12.8l-4.9 2.6.9-5.4-4-3.9 5.5-.8 2.4-5 2.4 5 5.5.8L72 10l.9 5.4z" fill="#DCDFE9"/><path d="M65.6 5.4l-5.5.8L64 10l-.9 5.5 4.9-2.6V.4l-2.4 5z" fill="#FFC64A"/></g><g clip-path="url(#bme)"><path d="M92.9 15.4L88 12.8l-4.9 2.6.9-5.4-4-3.9 5.5-.8 2.4-5 2.4 5 5.5.8L92 10l.9 5.4z" fill="#DCDFE9"/></g><defs><clipPath id="bma"><path fill="#fff" d="M0 0h16v16H0z"/></clipPath><clipPath id="bmb"><path fill="#fff" transform="translate(20)" d="M0 0h16v16H0z"/></clipPath><clipPath id="bmc"><path fill="#fff" transform="translate(40)" d="M0 0h16v16H0z"/></clipPath><clipPath id="bmd"><path fill="#fff" transform="translate(60)" d="M0 0h16v16H0z"/></clipPath><clipPath id="bme"><path fill="#fff" transform="translate(80)" d="M0 0h16v16H0z"/></clipPath></defs></svg><svg fill="none" viewBox="0 0 96 16" id="stars4" xmlns="http://www.w3.org/2000/svg"><g clip-path="url(#bna)"><path d="M12.9 15.4L8 12.8l-4.9 2.6L4 10 0 6.1l5.5-.8 2.4-5 2.4 5 5.5.8L12 10l.9 5.4z" fill="#FFC64A"/></g><g clip-path="url(#bnb)"><path d="M32.9 15.4L28 12.8l-4.9 2.6.9-5.4-4-3.9 5.5-.8 2.4-5 2.4 5 5.5.8L32 10l.9 5.4z" fill="#FFC64A"/></g><g clip-path="url(#bnc)"><path d="M52.9 15.4L48 12.8l-4.9 2.6.9-5.4-4-3.9 5.5-.8 2.4-5 2.4 5 5.5.8L52 10l.9 5.4z" fill="#FFC64A"/></g><g clip-path="url(#bnd)"><path d="M72.9 15.4L68 12.8l-4.9 2.6.9-5.4-4-3.9 5.5-.8 2.4-5 2.4 5 5.5.8L72 10l.9 5.4z" fill="#FFC64A"/></g><g clip-path="url(#bne)"><path d="M92.9 15.4L88 12.8l-4.9 2.6.9-5.4-4-3.9 5.5-.8 2.4-5 2.4 5 5.5.8L92 10l.9 5.4z" fill="#DCDFE9"/></g><defs><clipPath id="bna"><path fill="#fff" d="M0 0h16v16H0z"/></clipPath><clipPath id="bnb"><path fill="#fff" transform="translate(20)" d="M0 0h16v16H0z"/></clipPath><clipPath id="bnc"><path fill="#fff" transform="translate(40)" d="M0 0h16v16H0z"/></clipPath><clipPath id="bnd"><path fill="#fff" transform="translate(60)" d="M0 0h16v16H0z"/></clipPath><clipPath id="bne"><path fill="#fff" transform="translate(80)" d="M0 0h16v16H0z"/></clipPath></defs></svg><svg fill="none" viewBox="0 0 96 16" id="stars45" xmlns="http://www.w3.org/2000/svg"><g clip-path="url(#boa)"><path d="M12.9 15.4L8 12.8l-4.9 2.6L4 10 0 6.1l5.5-.8 2.4-5 2.4 5 5.5.8L12 10l.9 5.4z" fill="#FFC64A"/></g><g clip-path="url(#bob)"><path d="M32.9 15.4L28 12.8l-4.9 2.6.9-5.4-4-3.9 5.5-.8 2.4-5 2.4 5 5.5.8L32 10l.9 5.4z" fill="#FFC64A"/></g><g clip-path="url(#boc)"><path d="M52.9 15.4L48 12.8l-4.9 2.6.9-5.4-4-3.9 5.5-.8 2.4-5 2.4 5 5.5.8L52 10l.9 5.4z" fill="#FFC64A"/></g><g clip-path="url(#bod)"><path d="M72.9 15.4L68 12.8l-4.9 2.6.9-5.4-4-3.9 5.5-.8 2.4-5 2.4 5 5.5.8L72 10l.9 5.4z" fill="#FFC64A"/></g><g clip-path="url(#boe)"><path d="M92.9 15.4L88 12.8l-4.9 2.6.9-5.4-4-3.9 5.5-.8 2.4-5 2.4 5 5.5.8L92 10l.9 5.4z" fill="#DCDFE9"/><path d="M85.6 5.4l-5.5.8L84 10l-.9 5.5 4.9-2.6V.4l-2.4 5z" fill="#FFC64A"/></g><defs><clipPath id="boa"><path fill="#fff" d="M0 0h16v16H0z"/></clipPath><clipPath id="bob"><path fill="#fff" transform="translate(20)" d="M0 0h16v16H0z"/></clipPath><clipPath id="boc"><path fill="#fff" transform="translate(40)" d="M0 0h16v16H0z"/></clipPath><clipPath id="bod"><path fill="#fff" transform="translate(60)" d="M0 0h16v16H0z"/></clipPath><clipPath id="boe"><path fill="#fff" transform="translate(80)" d="M0 0h16v16H0z"/></clipPath></defs></svg><svg fill="none" viewBox="0 0 96 16" id="stars5" xmlns="http://www.w3.org/2000/svg"><g clip-path="url(#bpa)"><path d="M12.9 15.4L8 12.8l-4.9 2.6L4 10 0 6.1l5.5-.8 2.4-5 2.4 5 5.5.8L12 10l.9 5.4z" fill="#FFC64A"/></g><g clip-path="url(#bpb)"><path d="M32.9 15.4L28 12.8l-4.9 2.6.9-5.4-4-3.9 5.5-.8 2.4-5 2.4 5 5.5.8L32 10l.9 5.4z" fill="#FFC64A"/></g><g clip-path="url(#bpc)"><path d="M52.9 15.4L48 12.8l-4.9 2.6.9-5.4-4-3.9 5.5-.8 2.4-5 2.4 5 5.5.8L52 10l.9 5.4z" fill="#FFC64A"/></g><g clip-path="url(#bpd)"><path d="M72.9 15.4L68 12.8l-4.9 2.6.9-5.4-4-3.9 5.5-.8 2.4-5 2.4 5 5.5.8L72 10l.9 5.4z" fill="#FFC64A"/></g><g clip-path="url(#bpe)"><path d="M92.9 15.4L88 12.8l-4.9 2.6.9-5.4-4-3.9 5.5-.8 2.4-5 2.4 5 5.5.8L92 10l.9 5.4z" fill="#FFC64A"/></g><defs><clipPath id="bpa"><path fill="#fff" d="M0 0h16v16H0z"/></clipPath><clipPath id="bpb"><path fill="#fff" transform="translate(20)" d="M0 0h16v16H0z"/></clipPath><clipPath id="bpc"><path fill="#fff" transform="translate(40)" d="M0 0h16v16H0z"/></clipPath><clipPath id="bpd"><path fill="#fff" transform="translate(60)" d="M0 0h16v16H0z"/></clipPath><clipPath id="bpe"><path fill="#fff" transform="translate(80)" d="M0 0h16v16H0z"/></clipPath></defs></svg><svg fill="none" viewBox="0 0 32 32" id="suitcase" xmlns="http://www.w3.org/2000/svg"><g clip-path="url(#bqa)"><path d="M24.946 19.224v3.85h-4.479v-3.85h-8.934v3.85H7.054v-3.85h-5.29v8.164a2.811 2.811 0 002.81 2.81h22.852a2.811 2.811 0 002.811-2.81v-8.164h-5.291z" fill="#3C50E0"/><path d="M27.725 7.45h-4.411V4.751a2.95 2.95 0 00-2.943-2.95h-8.742a2.95 2.95 0 00-2.943 2.95v2.7H4.275A4.28 4.28 0 000 11.724v7.498c0 .346.28.625.625.625h5.804v3.225c0 .346.28.625.625.625h4.479c.345 0 .625-.28.625-.625v-3.225h7.684v3.225c0 .346.28.625.625.625h4.479c.345 0 .625-.28.625-.625v-3.225h5.804c.345 0 .625-.28.625-.625v-7.498a4.28 4.28 0 00-4.275-4.275zM9.936 4.751c0-.937.76-1.7 1.693-1.7h8.742c.933 0 1.693.763 1.693 1.7v2.7h-1.696V5.38a.625.625 0 00-.625-.626h-7.486a.625.625 0 00-.625.625v2.07H9.936V4.751zm2.946 2.7V6.004h6.236V7.45h-6.236zm-1.974 14.997H7.679v-5.307h3.229v5.307zm13.413 0h-3.229v-5.307h3.229v5.307zm6.429-3.85h-5.18v-2.082a.625.625 0 00-.624-.625h-4.479a.625.625 0 00-.625.625v2.082h-7.684v-2.082a.625.625 0 00-.625-.625H7.054a.625.625 0 00-.625.625v2.082H1.25v-6.873A3.028 3.028 0 014.275 8.7h23.45a3.028 3.028 0 013.025 3.025v6.873z" fill="#1D2948"/></g><defs><clipPath id="bqa"><path fill="#fff" d="M0 0h32v32H0z"/></clipPath></defs></svg><svg fill="none" viewBox="0 0 42 42" id="telegram" xmlns="http://www.w3.org/2000/svg"><path d="M16.141 24.854l-.6 8.439c.858 0 1.23-.369 1.676-.812l4.025-3.846 8.34 6.107c1.529.853 2.607.404 3.02-1.407l5.473-25.65.002-.002c.485-2.261-.818-3.145-2.308-2.59L3.592 17.411c-2.196.852-2.163 2.076-.373 2.63l8.226 2.56 19.108-11.957c.9-.595 1.717-.266 1.045.33L16.14 24.854z" fill="#27A5FF"/></svg><svg fill="none" viewBox="0 0 70 70" id="tick" xmlns="http://www.w3.org/2000/svg"><path d="M46.498 24.24L29.436 41.426l-6.454-6.453-2.433 2.433 7.656 7.657c.342.341.807.615 1.217.615.41 0 .861-.274 1.203-.602l18.28-18.375-2.407-2.46z" fill="#3C50E0"/><path d="M35 6.563C19.291 6.563 6.562 19.29 6.562 35c0 15.709 12.729 28.438 28.438 28.438S63.438 50.709 63.438 35 50.709 6.562 35 6.562zm0 54.51C20.63 61.072 8.928 49.382 8.928 35 8.928 20.63 20.618 8.928 35 8.928c14.37 0 26.072 11.69 26.072 26.072 0 14.37-11.703 26.072-26.072 26.072z" fill="#3C50E0"/></svg><svg fill="none" viewBox="0 0 24 24" id="time" xmlns="http://www.w3.org/2000/svg"><path fill-rule="evenodd" clip-rule="evenodd" d="M12 21a9 9 0 100-18 9 9 0 000 18zm1-14.5a1 1 0 10-2 0v5.25c0 .69.56 1.25 1.25 1.25h3.25a1 1 0 100-2H13V6.5z" fill="#1D2948" opacity=".3"/></svg><svg fill="none" viewBox="0 0 42 42" id="vk" xmlns="http://www.w3.org/2000/svg"><path fill-rule="evenodd" clip-rule="evenodd" d="M20.175 31.063h2.465s.745-.082 1.125-.492c.35-.376.338-1.082.338-1.082s-.048-3.308 1.487-3.795c1.514-.48 3.457 3.197 5.516 4.61 1.558 1.07 2.741.836 2.741.836l5.507-.077s2.88-.177 1.515-2.442c-.112-.186-.796-1.676-4.095-4.738-3.453-3.205-2.99-2.687 1.17-8.23 2.532-3.377 3.545-5.438 3.229-6.32-.302-.842-2.165-.62-2.165-.62l-6.2.04s-.46-.064-.801.14c-.333.2-.547.666-.547.666s-.982 2.613-2.29 4.834c-2.762 4.689-3.866 4.936-4.317 4.645-1.05-.678-.788-2.726-.788-4.18 0-4.543.69-6.438-1.341-6.928-.674-.163-1.17-.27-2.894-.288-2.212-.023-4.085.007-5.145.526-.706.346-1.25 1.115-.918 1.16.41.055 1.338.25 1.83.92.635.864.613 2.806.613 2.806s.365 5.348-.853 6.013c-.836.455-1.982-.475-4.444-4.729C9.652 12.16 8.7 9.752 8.7 9.752s-.184-.45-.511-.69c-.398-.292-.953-.385-.953-.385l-5.892.039s-.885.024-1.21.409c-.288.342-.022 1.05-.022 1.05s4.613 10.792 9.836 16.23c4.789 4.986 10.227 4.659 10.227 4.659z" fill="#07F"/></svg></svg>