<?xml version="1.0" encoding="utf-8"?><svg viewBox="0 0 32 32" xmlns="http://www.w3.org/2000/svg" xmlns:xlink="http://www.w3.org/1999/xlink"><style>:root>svg{display:none}:root>svg:target{display:block}</style><svg fill="inherit" viewBox="0 0 14 14" id="arrow" xmlns="http://www.w3.org/2000/svg"><g clip-path="url(#aa)"><path d="M10.614 6.616L4.149.15a.539.539 0 00-.762.762l6.084 6.084-6.084 6.084a.539.539 0 00.762.761l6.465-6.464a.539.539 0 000-.762z"/></g><defs><clipPath id="aa"><path d="M0 0h14v14H0z"/></clipPath></defs></svg><svg fill="none" viewBox="0 0 32 32" id="bank" xmlns="http://www.w3.org/2000/svg"><path d="M4.866 13.731h3.143v11.797H4.866V13.731zm19.124 0h3.144v11.797h-3.143V13.731zm-9.562 0h3.144v11.797h-3.144V13.731zM3.616 25.528h5.643v2.784H3.616v-2.784z" fill="#3C50E0"/><path d="M3.616 10.948h5.643v2.784H3.616v-2.784zm19.124 14.58h5.644v2.784h-5.643v-2.784zm0-14.58h5.644v2.784h-5.643v-2.784zm-9.562 14.58h5.644v2.784h-5.644v-2.784zm0-14.58h5.644v2.784h-5.644v-2.784z" fill="#3C50E0"/><path d="M29.386 27.686H2.614a.625.625 0 00-.625.625v3.064c0 .346.28.625.625.625h26.771c.346 0 .625-.28.625-.625v-3.063a.625.625 0 00-.624-.626zm-.625 3.064H3.239v-1.813H28.76v1.813zM30.01 7.892a.628.628 0 00-.335-.562L16.298.076a.625.625 0 00-.596 0L2.326 7.33a.627.627 0 00-.337.56v3.058c0 .345.28.625.625.625h26.771c.346 0 .625-.28.625-.625V7.893zM16 1.336l10.922 5.923H5.078L16 1.336zm12.76 8.987H3.24V8.51h25.52v1.814z" fill="#1D2948"/><path d="M16 3.242a.625.625 0 00-.625.625v1.15a.625.625 0 101.25 0v-1.15A.625.625 0 0016 3.242z" fill="#1D2948"/></svg><svg fill="none" viewBox="0 0 32 32" id="code" xmlns="http://www.w3.org/2000/svg"><path d="M27.625 7.563H4.375v15h6.938l1.874 1.25h5l1.875-1.25h7.563v-15z" fill="#3C50E0"/><path d="M31.375 21.938h-.625V5.063a.625.625 0 00-.625-.625H1.875a.625.625 0 00-.625.625v16.875H.625a.625.625 0 00-.625.625c0 2.757 2.243 5 5 5h22c2.757 0 5-2.243 5-5a.625.625 0 00-.625-.625zM2.5 5.688h27v16.25h-9.438a.625.625 0 00-.346.105l-1.718 1.145h-4.621l-1.718-1.145a.625.625 0 00-.347-.105H2.5V5.688zM27 26.313H5a3.756 3.756 0 01-3.698-3.125h9.821l1.718 1.145a.625.625 0 00.347.105h5a.625.625 0 00.346-.105l1.718-1.145h10.446A3.756 3.756 0 0127 26.313z" fill="#1D2948"/><path d="M11.442 17.12l-2.058-2.058 2.058-2.058a.625.625 0 00-.884-.883l-2.5 2.5a.625.625 0 000 .883l2.5 2.5a.625.625 0 00.884-.883zm9.116.884c.244.244.64.244.884 0l2.5-2.5a.625.625 0 000-.883l-2.5-2.5a.625.625 0 00-.884.883l2.058 2.059-2.058 2.058a.625.625 0 000 .883zm-6.395-.29l4.42-4.42a.625.625 0 00-.884-.883l-4.42 4.419a.625.625 0 00.884.884z" fill="#fff"/></svg><svg fill="none" viewBox="0 0 32 32" id="cubes" xmlns="http://www.w3.org/2000/svg"><path d="M11.955 28.038H4.722a.735.735 0 01-.734-.735v-7.232c0-.406.329-.735.734-.735h7.233c.406 0 .735.329.735.735v7.232a.735.735 0 01-.735.735zm11.733-.264h-.001a4.35 4.35 0 01-4.35-4.35v-.001a4.35 4.35 0 118.702 0 4.35 4.35 0 01-4.351 4.351z" fill="#3C50E0"/><path d="M17.85 12.863a1.22 1.22 0 001.062-.187c.309-.224.494-.572.507-.953l.065-1.923 1.078-1.595c.213-.316.268-.705.15-1.068a1.222 1.222 0 00-.75-.776l-1.809-.657-1.183-1.518a1.222 1.222 0 00-.97-.473c-.382 0-.735.173-.97.473l-1.184 1.518-1.809.656c-.358.13-.632.414-.75.777-.117.363-.063.752.151 1.068L12.515 9.8l.066 1.923c.013.381.198.729.507.953a1.222 1.222 0 001.063.187L16 12.331l1.85.532zm-2.023-1.782l-1.998.574-.07-2.077a.625.625 0 00-.107-.329l-1.164-1.722 1.954-.71c.11-.04.207-.11.28-.203L16 4.975l1.278 1.64a.624.624 0 00.28.202l1.954.71-1.164 1.722a.625.625 0 00-.107.329l-.07 2.077-1.998-.574a.624.624 0 00-.346 0z" fill="#1D2948"/><path d="M29.591 15.375h-5.518c.19-.344.297-.739.297-1.159V2.41A2.411 2.411 0 0021.962 0H10.154a2.411 2.411 0 00-2.409 2.409v11.807c0 .42.108.815.298 1.159H2.409A2.411 2.411 0 000 17.784V29.59A2.411 2.411 0 002.409 32h11.807c.707 0 1.343-.306 1.784-.792a2.403 2.403 0 001.784.792H29.59A2.411 2.411 0 0032 29.591V17.784a2.411 2.411 0 00-2.409-2.409zM8.995 14.216V2.41c0-.64.52-1.159 1.16-1.159h11.807c.639 0 1.159.52 1.159 1.159v11.807a1.16 1.16 0 01-1.16 1.159H10.155a1.16 1.16 0 01-1.159-1.159zm5.221 16.534H2.41a1.16 1.16 0 01-1.159-1.159V17.784c0-.64.52-1.159 1.159-1.159h11.807c.64 0 1.159.52 1.159 1.159V29.59a1.16 1.16 0 01-1.159 1.159zm16.534-1.159a1.16 1.16 0 01-1.159 1.159H17.784a1.16 1.16 0 01-1.159-1.159V17.784c0-.64.52-1.159 1.159-1.159H29.59c.64 0 1.159.52 1.159 1.159V29.59z" fill="#1D2948"/></svg><svg fill="none" viewBox="0 0 32 32" id="graduation" xmlns="http://www.w3.org/2000/svg"><path d="M24.125 13.767a.625.625 0 00-.625.625v5.742a15.647 15.647 0 01-7.5 1.918c-2.62 0-5.204-.662-7.5-1.918v-5.742a.625.625 0 00-1.25 0V20.5c0 .223.12.43.313.54A16.897 16.897 0 0016 23.303a16.9 16.9 0 008.438-2.261.625.625 0 00.312-.541v-6.108a.625.625 0 00-.625-.625zM29 18.4v-5.672a.625.625 0 00-1.25 0V18.4a2.035 2.035 0 00-1.406 1.933v4.844a.625.625 0 001.25 0v-1.875h1.562v1.875a.625.625 0 001.25 0v-4.844c0-.902-.59-1.668-1.406-1.933zm.156 3.652h-1.562v-1.719a.782.782 0 011.562 0v1.719z" fill="#1D2948"/><path fill-rule="evenodd" clip-rule="evenodd" d="M0 12.052l16-5.854 16 5.854-16 5.854-16-5.854z" fill="#3C50E0"/></svg><svg fill="none" viewBox="0 0 32 32" id="megaphone" xmlns="http://www.w3.org/2000/svg"><path d="M28.489 24.965l-2.17.776.063-2.316-1.404-1.836 2.209-.655 1.302-1.91 1.302 1.91L32 21.59l-1.404 1.837.063 2.315-2.17-.776zm-9.263-1.818l-11.41-4.934v-8.86l11.41-4.935v18.73z" fill="#3C50E0"/><path d="M7.817 8.728H3.613a.625.625 0 00-.625.625v1.035H.625a.625.625 0 00-.625.625v5.54c0 .345.28.624.625.624h2.363v1.036c0 .345.28.625.625.625h.256v10.364c0 .345.28.625.625.625h3.323c.345 0 .625-.28.625-.625V9.352a.625.625 0 00-.625-.624zm-3.58 1.25h2.955v7.61H4.238v-7.61zm-2.987 5.95v-4.29h1.738v4.29H1.25zm5.942 12.65H5.119v-9.74h2.073v9.74zm15.68-17.679v-8.1a.625.625 0 00-.625-.625h-3.02a.625.625 0 00-.626.625v21.967c0 .345.28.625.625.625h3.02c.346 0 .626-.28.626-.625v-8.1a2.886 2.886 0 002.73-2.879v-.01c0-1.538-1.211-2.8-2.73-2.878zm-1.25 13.242h-1.77V3.424h1.77V24.14zm2.73-10.353c0 .849-.65 1.548-1.48 1.625v-3.261c.83.076 1.48.776 1.48 1.625v.01z" fill="#1D2948"/></svg><svg fill="none" stroke="inherit" viewBox="0 0 24 24" id="menu" xmlns="http://www.w3.org/2000/svg"><path d="M4 7h16M4 17h12" stroke-width="2" stroke-linecap="round"/></svg><svg fill="none" viewBox="0 0 32 32" id="pie-chart" xmlns="http://www.w3.org/2000/svg"><g clip-path="url(#ha)"><path d="M30.735 14.104v-.017C30.735 6.648 24.711.618 17.28.618v13.486h13.456z" fill="#3C50E0"/><path d="M31.817 16.48a.625.625 0 00-.442-.184H17.919a.625.625 0 00-.442 1.067l9.506 9.515a.625.625 0 00.884 0A14.008 14.008 0 0032 16.923a.625.625 0 00-.183-.443zm-4.401 9.062l-.696-.696 1.077-1.076a.625.625 0 10-.884-.884l-1.076 1.076-1.174-1.175 2.846-2.847a.625.625 0 10-.883-.884l-2.847 2.846-1.078-1.079.947-.947a.625.625 0 00-.884-.884l-.947.947-2.39-2.393h11.307a12.746 12.746 0 01-3.319 7.996z" fill="#1D2948"/><path d="M14.706 17.046V3.82a.625.625 0 00-.625-.625 13.982 13.982 0 00-9.957 4.129A14.009 14.009 0 000 17.288a14.01 14.01 0 004.124 9.966 13.982 13.982 0 009.957 4.129 13.98 13.98 0 009.948-4.12.625.625 0 000-.884l-9.323-9.333zm-.625 13.087c-7.075 0-12.831-5.762-12.831-12.845 0-6.872 5.42-12.501 12.206-12.829v12.503l-6.59 4.19a.625.625 0 10.67 1.054l6.457-4.105 8.7 8.709a12.731 12.731 0 01-8.612 3.323z" fill="#1D2948"/></g><defs><clipPath id="ha"><path fill="#fff" d="M0 0h32v32H0z"/></clipPath></defs></svg><svg fill="none" viewBox="0 0 32 32" id="ruler" xmlns="http://www.w3.org/2000/svg"><path d="M9.828 25.1l-.417-.625v-1.886H7.526l-.625-.417-.625.417H.625v8.786h8.786v-5.65l.417-.625zm19.11-18.449v10.694l-9.125 4.718V11.369l9.125-4.718z" fill="#3C50E0"/><path d="M31.375 24.474H9.411v1.25h2.512v2.513a.625.625 0 101.25 0v-2.513h1.888v1.651a.625.625 0 001.25 0v-1.65H18.2v2.512a.625.625 0 001.25 0v-2.513h1.888v1.651a.625.625 0 001.25 0v-1.65h1.887v2.512a.625.625 0 001.25 0v-2.513h1.888v1.651a.625.625 0 001.25 0v-1.65h1.888v5.025H1.25V1.25h5.026v1.888H4.39a.625.625 0 000 1.25h1.886v1.888H5.25a.625.625 0 000 1.25h1.026v1.887H4.39a.625.625 0 000 1.25h1.886v1.888H5.25a.625.625 0 000 1.25h1.026v1.888H4.39a.625.625 0 000 1.25h1.886v1.887H5.25a.625.625 0 000 1.25h1.026v2.513h1.25V.625A.625.625 0 006.9 0H.625A.625.625 0 000 .625v30.75c0 .345.28.625.625.625h30.75c.345 0 .625-.28.625-.625v-6.276a.625.625 0 00-.625-.625z" fill="#1D2948"/><path d="M10.4 17.9l9.135 4.722c.17.084.373.09.555 0l9.138-4.724a.625.625 0 00.334-.553V6.651a.628.628 0 00-.369-.57l-.012-.006-9.113-4.083a.625.625 0 00-.511 0l-9.113 4.083c-.006.006-.382.15-.382.576v10.694c0 .245.145.458.338.555zm8.787 3.136l-7.875-4.072V7.679l7.876 4.071v9.287zm.625-17.789l8.5 3.81v9.907l-7.875 4.072v-9.667a.625.625 0 00-.337-.555L12.126 6.69l7.687-3.444z" fill="#1D2948"/></svg><svg fill="none" viewBox="0 0 32 32" id="speech-bubble" xmlns="http://www.w3.org/2000/svg"><g clip-path="url(#ja)"><path d="M29.49 1.882H11.294a2.513 2.513 0 00-2.51 2.51v9.2a16.992 16.992 0 013.765-.416c5.637 0 10.36 2.677 11.602 6.274h3.864L32 22.638V4.392a2.513 2.513 0 00-2.51-2.51z" fill="#3E3AFF"/><path d="M12.549 22.588a1.255 1.255 0 100-2.51 1.255 1.255 0 000 2.51zm5.019 0a1.255 1.255 0 100-2.51 1.255 1.255 0 000 2.51zm-10.038 0a1.255 1.255 0 100-2.51 1.255 1.255 0 000 2.51z" fill="#1D2948"/><path d="M21.333 15.047c-4.871-3.333-12.695-3.334-17.568 0-4.963 3.396-4.927 8.854-.438 12.256l-3 1.636a.627.627 0 00.3 1.178H12.55c3.31 0 6.43-.887 8.784-2.499 5.016-3.431 5.034-9.126 0-12.57zm-.708 11.536c-2.149 1.47-5.017 2.28-8.076 2.28H3.09l1.735-.948a.628.628 0 00.032-1.083c-4.55-2.835-4.906-7.654-.382-10.75 4.446-3.041 11.705-3.04 16.15 0 4.292 2.937 4.296 7.562 0 10.5z" fill="#1D2948"/></g><defs><clipPath id="ja"><path fill="#fff" d="M0 0h32v32H0z"/></clipPath></defs></svg><svg fill="none" viewBox="0 0 32 32" id="suitcase" xmlns="http://www.w3.org/2000/svg"><g clip-path="url(#ka)"><path d="M24.946 19.224v3.85h-4.479v-3.85h-8.934v3.85H7.054v-3.85h-5.29v8.164a2.811 2.811 0 002.81 2.81h22.852a2.811 2.811 0 002.811-2.81v-8.164h-5.291z" fill="#3C50E0"/><path d="M27.725 7.45h-4.411V4.751a2.95 2.95 0 00-2.943-2.95h-8.742a2.95 2.95 0 00-2.943 2.95v2.7H4.275A4.28 4.28 0 000 11.724v7.498c0 .346.28.625.625.625h5.804v3.225c0 .346.28.625.625.625h4.479c.345 0 .625-.28.625-.625v-3.225h7.684v3.225c0 .346.28.625.625.625h4.479c.345 0 .625-.28.625-.625v-3.225h5.804c.345 0 .625-.28.625-.625v-7.498a4.28 4.28 0 00-4.275-4.275zM9.936 4.751c0-.937.76-1.7 1.693-1.7h8.742c.933 0 1.693.763 1.693 1.7v2.7h-1.696V5.38a.625.625 0 00-.625-.626h-7.486a.625.625 0 00-.625.625v2.07H9.936V4.751zm2.946 2.7V6.004h6.236V7.45h-6.236zm-1.974 14.997H7.679v-5.307h3.229v5.307zm13.413 0h-3.229v-5.307h3.229v5.307zm6.429-3.85h-5.18v-2.082a.625.625 0 00-.624-.625h-4.479a.625.625 0 00-.625.625v2.082h-7.684v-2.082a.625.625 0 00-.625-.625H7.054a.625.625 0 00-.625.625v2.082H1.25v-6.873A3.028 3.028 0 014.275 8.7h23.45a3.028 3.028 0 013.025 3.025v6.873z" fill="#1D2948"/></g><defs><clipPath id="ka"><path fill="#fff" d="M0 0h32v32H0z"/></clipPath></defs></svg></svg>